<?xml version="1.0" encoding="utf-8"?>
<!-- Generator: Adobe Illustrator 27.5.0, SVG Export Plug-In . SVG Version: 6.00 Build 0)  -->
<svg version="1.1" xmlns="http://www.w3.org/2000/svg" xmlns:xlink="http://www.w3.org/1999/xlink" x="0px" y="0px"
	 viewBox="0 0 750 500" style="enable-background:new 0 0 750 500;" xml:space="preserve">
<g id="BACKGROUND">
	<rect style="fill:#FFFFFF;" width="750" height="500"/>
</g>
<g id="OBJECTS">
	<g>
		<g>
			<g>
				<rect x="580.277" y="160.104" style="fill:#D2AB94;" width="124.085" height="246.638"/>
				<path style="fill:#F2E2C8;" d="M690.213,303.202h-3.871c-0.928,0-1.681-0.753-1.681-1.681v-23.915
					c0-0.928,0.753-1.681,1.681-1.681h3.871c0.928,0,1.681,0.753,1.681,1.681v23.915
					C691.894,302.449,691.141,303.202,690.213,303.202z"/>
				<path style="fill:#606060;" d="M689.303,292.685c0-0.705-0.474-1.277-1.058-1.277s-1.058,0.572-1.058,1.277
					c0,0.569,0.314,1.035,0.741,1.199l-0.741,2.503h2.011l-0.665-2.496C688.974,293.738,689.303,293.267,689.303,292.685z"/>
				<circle style="fill:#606060;" cx="688.021" cy="278.828" r="6.894"/>
				<path style="fill:#545453;" d="M691.358,272.797c1.471,2.181,2.021,4.989,1.172,7.47c-1.014,2.962-4.139,5.103-7.213,4.902
					c0.831,0.355,1.744,0.552,2.704,0.552c3.807,0,6.894-3.086,6.894-6.894C694.915,276.231,693.478,273.973,691.358,272.797z"/>
				<g>
					<polygon style="fill:#606060;" points="583.34,406.742 583.144,345.976 583.042,285.211 582.906,163.679 582.906,163.245 
						583.341,163.245 641.894,163.18 700.447,163.243 700.883,163.243 700.882,163.679 700.746,285.211 700.644,345.976 
						700.447,406.742 700.25,345.976 700.147,285.211 700.011,163.679 700.447,164.114 641.894,164.178 583.341,164.112 
						583.774,163.679 583.639,285.211 583.536,345.976 					"/>
				</g>
			</g>
			<g>
				<g>
					<path style="fill:#E57930;" d="M614.305,384.343l-18.214-0.081c-1.269-0.006-2.293-1.039-2.288-2.308l0.182-40.883
						c0.006-1.269,1.039-2.293,2.308-2.288l18.214,0.081c1.269,0.006,2.293,1.039,2.288,2.308l-0.182,40.883
						C616.607,383.324,615.574,384.348,614.305,384.343z"/>
					
						<rect x="596.744" y="343.876" transform="matrix(1 0.0045 -0.0045 1 1.5492 -2.6958)" style="opacity:0.59;fill:#FFFFFF;" width="17.247" height="4.422"/>
					
						<rect x="596.713" y="350.825" transform="matrix(1 0.0045 -0.0045 1 1.5781 -2.6921)" style="opacity:0.38;fill:#FFFFFF;" width="17.247" height="4.422"/>
					
						<rect x="596.684" y="357.431" transform="matrix(1 0.0045 -0.0045 1 1.6075 -2.6919)" style="opacity:0.19;fill:#FFFFFF;" width="17.247" height="4.422"/>
				</g>
				<g>
					<g>
						<path style="fill:#C37134;" d="M602.031,366.312c-5.793,14.189-8.288,26.59-1.681,29.287
							c6.973,2.847,13.505-7.906,19.298-22.094c5.793-14.189,8.655-26.44,1.681-29.287
							C614.722,341.521,607.824,352.124,602.031,366.312z"/>
						<g>
							<path style="fill:#F59052;" d="M607.856,361.487c0.617,2.247,2.571,4.957,4.778,5.707c2.207,0.749,4.773,0.334,6.632-1.073
								c-3.729-0.227-8.289-2.285-11.227-4.592"/>
						</g>
						<g>
							<path style="fill:#F59052;" d="M604.295,370.626c0.653,2.237,2.649,4.916,4.868,5.63c2.218,0.714,4.778,0.259,6.614-1.178
								c-3.733-0.167-8.324-2.154-11.299-4.414"/>
						</g>
						<g>
							<path style="fill:#F59052;" d="M600.972,379.923c0.526,1.914,2.19,4.223,4.07,4.862c1.88,0.638,4.067,0.285,5.649-0.914
								c-3.177-0.193-7.061-1.947-9.565-3.912"/>
						</g>
						<g>
							<path style="fill:#F59052;" d="M611.92,353.314c0.526,1.914,2.19,4.223,4.07,4.862c1.88,0.638,4.067,0.285,5.649-0.914
								c-3.177-0.193-7.061-1.947-9.565-3.912"/>
						</g>
					</g>
					<g>
						<g>
							<g>
								<path style="fill:#6EA652;" d="M592.323,356.852c4.955-2.22,6.98-8.889,4.034-13.284c-5.807,1.448-8.737,9.039-5.295,13.723
									"/>
							</g>
							<g>
								<path style="fill:#6EA652;" d="M582.319,350.592c4.587,0.403,8.082,5.337,6.755,9.537c-0.116,0.366-0.284,0.75-0.629,0.946
									c-0.315,0.179-0.71,0.16-1.073,0.109c-3.851-0.543-6.758-4.521-5.956-8.147"/>
							</g>
							<g>
								<path style="fill:#6EA652;" d="M598.197,358.793c-3.827,1.427-6.218,5.694-5.333,9.515c0.061,0.263,0.161,0.554,0.416,0.67
									c0.277,0.126,0.602-0.013,0.865-0.163c3.244-1.843,4.986-5.798,4.094-9.292"/>
							</g>
						</g>
						<g>
							<g>
								<g>
									<path style="fill:#2D6E56;" d="M593.207,406.741c2.921-6.665,1.697-13.923,0.198-20.782
										c-0.805-3.681-1.706-7.351-2.163-11.097c-0.465-3.813-0.546-7.673-0.247-11.503c0.339-4.345,1.189-8.632,2.487-12.79
										c0.193-0.62-0.778-0.885-0.971-0.268c-2.242,7.179-3.119,14.768-2.509,22.267c0.594,7.301,3.056,14.266,3.815,21.535
										c0.43,4.114,0.199,8.299-1.479,12.13C592.08,406.821,592.947,407.334,593.207,406.741L593.207,406.741z"/>
								</g>
							</g>
							<g>
								<g>
									<path style="fill:#2D6E56;" d="M590.873,364.137c-1.579-2.117-2.796-4.476-3.572-7.001
										c-0.19-0.617-1.162-0.354-0.971,0.268c0.8,2.605,2.044,5.058,3.674,7.242c0.164,0.22,0.433,0.326,0.689,0.181
										C590.909,364.703,591.035,364.354,590.873,364.137L590.873,364.137z"/>
								</g>
							</g>
							<g>
								<g>
									<path style="fill:#2D6E56;" d="M594.445,364.304c0.158,2.436-1.401,4.8-3.655,5.71c-0.252,0.102-0.43,0.336-0.352,0.619
										c0.066,0.239,0.366,0.454,0.619,0.352c2.654-1.072,4.584-3.766,4.395-6.681C595.41,363.66,594.403,363.656,594.445,364.304
										L594.445,364.304z"/>
								</g>
							</g>
						</g>
					</g>
					<g>
						<g>
							<path style="fill:#6EA652;" d="M577.056,357.909c-0.896-6.901-6.421-12.96-13.211-14.486
								c2.93,6.191,7.433,11.629,12.967,15.664"/>
						</g>
						<g>
							<path style="fill:#6EA652;" d="M579.284,358.649c2.468-7.633,0.299-16.571-5.394-22.224
								c-0.176,7.274,0.952,14.577,3.313,21.459"/>
						</g>
						<g>
							<path style="fill:#83BA63;" d="M579.244,357.03c3.246-2.925,4.488-7.874,3.006-11.985c-3.518,3.541-5.702,8.378-6.033,13.359
								"/>
						</g>
						<g>
							<path style="fill:#83BA63;" d="M578.221,358.947c0.458-5.739-2.094-11.635-6.591-15.229
								c-0.451,5.121,1.157,10.395,4.389,14.393"/>
						</g>
						<g>
							<g>
								<path style="fill:#FF9B4B;" d="M577.287,357.729c1.006-1.825,3.923-1.63,5.375-0.136c1.452,1.494,1.821,3.705,2.087,5.772
									c1.201,9.333,1.735,18.738,2.269,28.133c-0.946,0.351-1.775-0.712-2.222-1.617c-4.366-8.843-7.961-18.066-10.73-27.532
									c-0.268-0.915-0.528-1.89-0.265-2.806c0.263-0.916,1.266-1.686,2.156-1.344"/>
							</g>
							<g>
								<g>
									<g>
										<path style="fill:#E0853D;" d="M577.167,360.475c-0.943,0.258-1.885,0.516-2.828,0.775
											c-0.358,0.098-0.614,0.509-0.496,0.874c0.119,0.367,0.49,0.601,0.874,0.496c0.943-0.258,1.885-0.516,2.828-0.775
											c0.358-0.098,0.614-0.509,0.496-0.874C577.922,360.604,577.551,360.37,577.167,360.475L577.167,360.475z"/>
									</g>
								</g>
								<g>
									<g>
										<path style="fill:#E0853D;" d="M583.895,362.984c-0.869,0.252-1.737,0.505-2.606,0.757
											c-0.357,0.104-0.615,0.505-0.496,0.874c0.117,0.362,0.492,0.607,0.874,0.496c0.869-0.252,1.737-0.505,2.606-0.757
											c0.357-0.104,0.615-0.505,0.496-0.874C584.652,363.118,584.277,362.873,583.895,362.984L583.895,362.984z"/>
									</g>
								</g>
								<g>
									<g>
										<path style="fill:#E0853D;" d="M578.545,368.015c-0.672,0.16-1.331,0.367-1.974,0.619
											c-0.178,0.07-0.325,0.156-0.424,0.326c-0.089,0.152-0.127,0.377-0.072,0.547c0.056,0.172,0.162,0.338,0.326,0.424
											c0.159,0.084,0.373,0.14,0.547,0.072c0.643-0.252,1.302-0.459,1.974-0.619c0.362-0.086,0.611-0.518,0.496-0.874
											C579.297,368.134,578.933,367.923,578.545,368.015L578.545,368.015z"/>
									</g>
								</g>
								<g>
									<g>
										<path style="fill:#E0853D;" d="M584.99,370.829c-0.654,0.216-1.308,0.431-1.963,0.647
											c-0.175,0.058-0.33,0.164-0.424,0.326c-0.089,0.152-0.127,0.377-0.072,0.547c0.114,0.351,0.496,0.621,0.874,0.496
											c0.654-0.216,1.308-0.431,1.963-0.647c0.175-0.058,0.33-0.164,0.425-0.327c0.089-0.152,0.127-0.377,0.072-0.547
											C585.75,370.974,585.367,370.705,584.99,370.829L584.99,370.829z"/>
									</g>
								</g>
								<g>
									<g>
										<path style="fill:#E0853D;" d="M580.995,376.574c-0.458,0.081-0.917,0.161-1.375,0.242
											c-0.166,0.029-0.343,0.186-0.425,0.326c-0.089,0.152-0.127,0.377-0.072,0.547c0.056,0.172,0.162,0.338,0.327,0.424
											c0.056,0.024,0.113,0.048,0.17,0.072c0.126,0.034,0.252,0.034,0.378,0c0.458-0.081,0.917-0.161,1.375-0.242
											c0.166-0.029,0.343-0.187,0.424-0.327c0.089-0.152,0.127-0.377,0.072-0.547c-0.056-0.172-0.162-0.338-0.326-0.424
											c-0.057-0.024-0.113-0.048-0.17-0.072C581.247,376.54,581.121,376.54,580.995,376.574L580.995,376.574z"/>
									</g>
								</g>
								<g>
									<g>
										<path style="fill:#E0853D;" d="M585.683,379.053c-0.406,0.159-0.828,0.269-1.26,0.329
											c0.063-0.008,0.126-0.017,0.189-0.025c-0.063,0.008-0.126,0.016-0.189,0.022c-0.098-0.004-0.189,0.017-0.274,0.061
											c-0.088,0.029-0.164,0.078-0.229,0.147c-0.123,0.123-0.216,0.325-0.208,0.502c0.008,0.184,0.069,0.374,0.208,0.502
											c0.13,0.12,0.318,0.227,0.502,0.208c0.562-0.058,1.111-0.171,1.638-0.377c0.092-0.022,0.173-0.064,0.242-0.127
											c0.077-0.05,0.138-0.117,0.183-0.199c0.089-0.152,0.127-0.377,0.072-0.547c-0.056-0.172-0.162-0.338-0.326-0.424
											C586.071,379.04,585.857,378.984,585.683,379.053L585.683,379.053z"/>
									</g>
								</g>
								<g>
									<g>
										<path style="fill:#E0853D;" d="M579.25,355.779c-0.31,0.218-0.633,0.415-0.971,0.586c-0.349,0.176-0.551,0.26-0.949,0.389
											c-0.36,0.116-0.728,0.207-1.102,0.269c-0.008,0.001-0.227,0.035-0.111,0.019c-0.1,0.014-0.201,0.024-0.301,0.032
											c-0.201,0.018-0.403,0.026-0.604,0.029c-0.371,0.005-0.728,0.324-0.71,0.71c0.017,0.381,0.312,0.715,0.71,0.71
											c1.69-0.021,3.37-0.544,4.754-1.518c0.303-0.213,0.475-0.631,0.255-0.972C580.027,355.733,579.575,355.55,579.25,355.779
											L579.25,355.779z"/>
									</g>
								</g>
							</g>
						</g>
					</g>
					<g>
						<g>
							<g>
								<path style="fill:#6EA652;" d="M564.107,363.591c2.768-4.371,0.831-10.981-3.858-13.167
									c-3.858,4.157-2.151,11.997,3.086,14.173"/>
							</g>
							<g>
								<path style="fill:#6EA652;" d="M552.799,363.421c3.87-1.988,9.284,0.371,10.463,4.56c0.103,0.365,0.174,0.772,0.003,1.111
									c-0.156,0.31-0.481,0.494-0.797,0.635c-3.359,1.497-7.794-0.358-9.086-3.802"/>
							</g>
							<g>
								<path style="fill:#6EA652;" d="M569.823,362.238c-2.291,3.135-1.925,7.92,0.816,10.67c0.188,0.189,0.423,0.382,0.688,0.35
									c0.288-0.035,0.472-0.316,0.603-0.575c1.604-3.187,0.887-7.382-1.685-9.855"/>
							</g>
						</g>
					</g>
					<g>
						<g>
							<g>
								<path style="fill:#2D6E56;" d="M574.481,381.108c-5.941-6.725-10.313-14.735-12.769-23.365
									c-0.177-0.622-1.149-0.358-0.971,0.268c2.505,8.8,6.972,16.953,13.028,23.809
									C574.199,382.306,574.909,381.592,574.481,381.108L574.481,381.108z"/>
							</g>
						</g>
						<g>
							<g>
								<path style="fill:#2D6E56;" d="M566.753,370.372c-2.355-0.959-4.547-2.32-6.458-3.996c-0.485-0.426-1.2,0.284-0.712,0.712
									c2.051,1.799,4.376,3.227,6.902,4.255c0.254,0.103,0.551-0.112,0.619-0.352
									C567.187,370.704,567.004,370.474,566.753,370.372L566.753,370.372z"/>
							</g>
						</g>
						<g>
							<g>
								<path style="fill:#2D6E56;" d="M569.733,368.752c1.427,1.972,1.469,4.711,0.091,6.72c-0.367,0.536,0.505,1.04,0.869,0.508
									c1.561-2.275,1.528-5.499-0.091-7.736C570.226,367.724,569.352,368.226,569.733,368.752L569.733,368.752z"/>
							</g>
						</g>
					</g>
					<g>
						<polygon style="fill:#F2E2C8;" points="622.608,368.775 617.855,406.793 560.453,407.181 552.044,369.163 						"/>
						<path style="fill:#E2CFB5;" d="M560.123,407.181l-8.079-38.018l6.194-0.035c2.352,4.261,3.746,9.137,5.062,13.94
							c1.542,5.629,3.088,11.38,6.126,16.21c2.176,3.459,5.286,6.4,8.83,7.776L560.123,407.181z"/>
					</g>
				</g>
			</g>
		</g>
		<g>
			<polygon style="fill:#606060;" points="545.043,407.253 567.574,407.01 590.106,406.87 635.17,406.754 680.234,406.868 
				702.766,407.008 725.298,407.253 702.766,407.498 680.234,407.638 635.17,407.752 590.106,407.636 567.574,407.496 			"/>
		</g>
	</g>
	<g>
		<g>
			<g>
				<path style="fill:#FFFFFF;" d="M201.998,92.385c-22.877-2.521-43.465,13.981-45.986,36.857
					c-1.58,14.335,4.311,27.769,14.558,36.425c0.179,0.401,0.501,0.687,1.013,0.819c0.016,0.013,0.032,0.026,0.048,0.039
					l-7.422,21.522c-0.401,1.163,1.102,2.1,2.078,1.295l19.025-15.669c2.425,0.734,4.947,1.268,7.557,1.556
					c22.877,2.521,43.466-13.981,45.986-36.857C241.376,115.495,224.874,94.906,201.998,92.385z"/>
				<g>
					<path style="fill:#1D1D1B;" d="M201.998,92.385c-4.412-0.413-8.872-0.198-13.207,0.696l-3.222,0.798l-3.129,1.105
						c-0.26,0.095-0.523,0.179-0.78,0.283l-0.751,0.352l-1.503,0.703c-0.497,0.242-1.01,0.452-1.494,0.72l-1.428,0.844
						c-7.698,4.4-13.739,11.448-17.268,19.534c-1.743,4.071-2.713,8.424-3.171,12.811c-0.371,4.399-0.078,8.861,0.976,13.149
						c1.998,8.613,6.942,16.45,13.662,22.15l0.033,0.028l0.015,0.036c0.158,0.372,0.492,0.619,0.894,0.716l0.037,0.009l0.031,0.025
						l0.047,0.038l0.101,0.081l-0.041,0.12l-4.11,11.985l-2.055,5.992l-1.028,2.996c-0.074,0.237-0.197,0.528-0.231,0.72
						c-0.036,0.212,0.005,0.427,0.117,0.611c0.221,0.372,0.705,0.592,1.134,0.516c0.223-0.036,0.398-0.137,0.593-0.298l0.61-0.504
						l1.221-1.009l2.442-2.018l4.883-4.036l9.787-8.047l0.096-0.079l0.12,0.036c2.749,0.821,5.576,1.436,8.443,1.617
						c2.862,0.243,5.748,0.226,8.598-0.124c5.705-0.677,11.259-2.573,16.201-5.507c9.911-5.824,17.282-15.931,19.502-27.272
						c1.159-5.641,1.153-11.525-0.072-17.157c-1.214-5.633-3.627-11-7.014-15.663c-3.383-4.666-7.738-8.629-12.719-11.543
						C213.342,94.879,207.741,93.023,201.998,92.385z M201.998,92.385c5.745,0.618,11.357,2.455,16.351,5.364
						c4.998,2.901,9.376,6.857,12.784,11.525c3.413,4.664,5.853,10.042,7.092,15.694c1.249,5.651,1.276,11.564,0.13,17.241
						c-2.194,11.413-9.577,21.619-19.552,27.527c-4.973,2.976-10.572,4.909-16.331,5.612c-2.878,0.363-5.794,0.391-8.686,0.155
						c-2.899-0.174-5.76-0.785-8.541-1.606l0.216-0.043l-9.774,8.063l-4.897,4.019l-2.448,2.01l-1.224,1.005l-0.612,0.502
						c-0.208,0.176-0.503,0.352-0.808,0.392c-0.615,0.098-1.258-0.192-1.583-0.73c-0.163-0.268-0.226-0.603-0.17-0.912
						c0.071-0.328,0.168-0.521,0.251-0.788l1.038-2.993l2.075-5.986l4.151-11.971l0.059,0.201l-0.049-0.039l0.067,0.033
						c-0.473-0.108-0.939-0.449-1.13-0.921l0.048,0.064c-6.759-5.772-11.71-13.685-13.692-22.361
						c-1.047-4.32-1.326-8.81-0.938-13.23c0.474-4.409,1.464-8.779,3.229-12.862c3.572-8.11,9.658-15.158,17.387-19.541l1.434-0.841
						c0.485-0.266,1.001-0.476,1.499-0.716l1.508-0.7l0.754-0.35c0.257-0.103,0.521-0.187,0.782-0.281l3.137-1.096l3.229-0.788
						C193.124,92.157,197.587,91.957,201.998,92.385z"/>
				</g>
			</g>
			<g>
				<path style="fill:#E57930;" d="M219.298,148.977h-19.06c-1.269,0-2.298-1.029-2.298-2.298v-29.131
					c0-1.269,1.029-2.298,2.298-2.298h19.06c1.269,0,2.298,1.029,2.298,2.298v29.131
					C221.596,147.948,220.567,148.977,219.298,148.977z"/>
				<rect x="200.825" y="118.997" style="opacity:0.59;fill:#FFFFFF;" width="17.886" height="3.279"/>
				<rect x="200.825" y="124.15" style="opacity:0.38;fill:#FFFFFF;" width="17.886" height="3.279"/>
				<rect x="200.825" y="129.049" style="opacity:0.19;fill:#FFFFFF;" width="17.886" height="3.279"/>
			</g>
			<g>
				<path style="fill:#6EA652;" d="M219.378,155.532h-30.995c-0.376,0-0.681-0.305-0.681-0.681v-21.595
					c0-0.376,0.305-0.681,0.681-0.681h30.995c0.376,0,0.681,0.305,0.681,0.681v21.595
					C220.059,155.227,219.754,155.532,219.378,155.532z"/>
				<rect x="187.649" y="137.862" style="fill:#5D8E3D;" width="32.464" height="0.795"/>
				<path style="fill:#6EA652;" d="M222.485,137.57h-37.208c-0.223,0-0.404-0.181-0.404-0.404v-4.187
					c0-0.223,0.181-0.404,0.404-0.404h37.208c0.223,0,0.404,0.181,0.404,0.404v4.187C222.889,137.389,222.708,137.57,222.485,137.57
					z"/>
				<rect x="190.105" y="140.525" style="fill:#5D8E3D;" width="27.551" height="9.026"/>
			</g>
			<g>
				<path style="fill:#D34C4C;" d="M190.187,154.693c-2.926-2.026-4.513-5.886-3.895-9.47c0.618-3.584,3.408-6.702,6.847-7.65
					c3.439-0.948,7.342,0.323,9.579,3.12c0.763,0.954,1.34,2.064,1.675,3.251c0.742,2.622,0.235,5.596-1.336,7.831
					c-1.571,2.235-4.17,3.683-6.846,3.812"/>
			</g>
			<g>
				<path style="fill:#C37134;" d="M186.903,133.892c4.252,10.691,6.045,20.004,1.083,21.944
					c-5.238,2.048-10.063-6.079-14.315-16.77c-4.252-10.691-6.32-19.896-1.083-21.944
					C177.55,115.182,182.651,123.201,186.903,133.892z"/>
				<g>
					<path style="fill:#F59052;" d="M182.57,130.21c-0.475,1.675-1.955,3.68-3.611,4.215c-1.657,0.535-3.576,0.193-4.958-0.882
						c2.794-0.125,6.219-1.612,8.433-3.304"/>
				</g>
				<g>
					<path style="fill:#F59052;" d="M179.577,124.044c-0.405,1.427-1.665,3.135-3.076,3.591c-1.411,0.455-3.046,0.165-4.224-0.751
						c2.38-0.107,5.298-1.373,7.184-2.814"/>
				</g>
			</g>
			<g>
				<path style="fill:#EFB93F;" d="M180.311,155.21c-2.369-1.016-3.946-3.509-4.139-6.08c-0.192-2.57,0.892-5.147,2.652-7.031
					c0.776-0.83,1.694-1.549,2.75-1.969c2.833-1.128,6.196,0.142,8.271,2.376c2.158,2.324,3.182,5.799,2.151,8.798
					c-1.031,2.999-4.327,5.186-7.43,4.533c-0.941-0.198-1.993-0.61-2.797-0.083"/>
			</g>
			<g>
				<rect x="178.149" y="154.487" style="fill:#38303B;" width="41.872" height="1.787"/>
				
					<rect x="208.281" y="140.357" transform="matrix(-0.3363 0.9417 -0.9417 -0.3363 432.211 -22.027)" style="fill:#38303B;" width="31.172" height="1.847"/>
				
					<rect x="158.238" y="140.357" transform="matrix(0.3363 0.9417 -0.9417 0.3363 248.4103 -69.9352)" style="fill:#38303B;" width="31.172" height="1.847"/>
				<path style="fill:#38303B;" d="M231,127.679h-64.085c-1.128,0-2.043-0.914-2.043-2.043l0,0c0-1.128,0.915-2.043,2.043-2.043H231
					c1.128,0,2.042,0.914,2.042,2.043l0,0C233.042,126.764,232.128,127.679,231,127.679z"/>
				<path style="fill:#38303B;" d="M176.847,125.221l-0.054-0.058c-0.479-0.517-0.448-1.325,0.07-1.804l18.7-17.309
					c0.517-0.479,1.325-0.448,1.804,0.07l0.054,0.058c0.479,0.517,0.448,1.325-0.07,1.804l-18.7,17.309
					C178.133,125.77,177.326,125.738,176.847,125.221z"/>
				<path style="fill:#38303B;" d="M221.501,125.61l0.056-0.056c0.499-0.499,0.499-1.307,0-1.805l-18.018-18.018
					c-0.499-0.499-1.307-0.499-1.805,0l-0.056,0.056c-0.499,0.499-0.499,1.307,0,1.805l18.018,18.018
					C220.194,126.108,221.003,126.108,221.501,125.61z"/>
				<line style="fill:none;stroke:#38303B;stroke-miterlimit:10;" x1="184.221" y1="125.941" x2="189.872" y2="155.532"/>
				<line style="fill:none;stroke:#38303B;stroke-miterlimit:10;" x1="215.659" y1="125.941" x2="210.008" y2="155.532"/>
				<line style="fill:none;stroke:#38303B;stroke-miterlimit:10;" x1="200.191" y1="125.891" x2="201.042" y2="154.657"/>
				<line style="fill:none;stroke:#38303B;stroke-miterlimit:10;" x1="223.851" y1="141.381" x2="174.149" y2="141.21"/>
			</g>
		</g>
		<g>
			<g>
				<g>
					<polygon style="fill:#1D1D1B;" points="245.809,140.445 248.304,140.575 248.303,140.592 					"/>
					<polygon style="fill:#1D1D1B;" points="253.254,141.156 258.127,142.212 258.104,142.295 253.245,141.207 					"/>
					<path style="fill:#1D1D1B;" d="M262.863,143.78c1.548,0.609,3.063,1.305,4.536,2.08l-0.073,0.138
						c-1.462-0.783-2.967-1.487-4.508-2.105L262.863,143.78z"/>
					<polygon style="fill:#1D1D1B;" points="271.689,148.411 275.716,151.359 275.574,151.534 271.582,148.569 					"/>
					<polygon style="fill:#1D1D1B;" points="279.495,154.619 283.06,158.11 282.847,158.315 279.317,154.809 					"/>
					<polygon style="fill:#1D1D1B;" points="286.455,161.766 289.723,165.529 289.444,165.764 286.208,161.985 					"/>
					<polygon style="fill:#1D1D1B;" points="292.909,169.363 296.046,173.236 295.707,173.507 292.599,169.615 					"/>
					<polygon style="fill:#1D1D1B;" points="299.165,177.123 302.287,181.006 301.896,181.32 298.798,177.415 					"/>
					<polygon style="fill:#1D1D1B;" points="305.423,184.873 308.599,188.708 308.196,189.045 305.026,185.197 					"/>
					<polygon style="fill:#1D1D1B;" points="311.826,192.5 315.112,196.241 314.702,196.606 311.419,192.851 					"/>
					<polygon style="fill:#1D1D1B;" points="318.461,199.92 321.881,203.537 321.468,203.934 318.049,200.301 					"/>
					<polygon style="fill:#1D1D1B;" points="325.372,207.083 328.969,210.514 328.565,210.954 324.959,207.497 					"/>
					<polygon style="fill:#1D1D1B;" points="332.701,213.799 336.56,216.929 336.178,217.418 332.307,214.264 					"/>
					<polygon style="fill:#1D1D1B;" points="340.549,219.893 344.665,222.678 344.316,223.22 340.182,220.409 					"/>
					<polygon style="fill:#1D1D1B;" points="348.908,225.263 353.277,227.625 352.974,228.222 348.58,225.832 					"/>
					<polygon style="fill:#1D1D1B;" points="357.77,229.738 362.381,231.57 362.146,232.222 357.497,230.363 					"/>
					<polygon style="fill:#1D1D1B;" points="367.104,233.085 371.924,234.242 371.783,234.945 366.912,233.763 					"/>
					<polygon style="fill:#1D1D1B;" points="376.819,235 381.758,235.32 381.744,236.06 376.738,235.725 					"/>
					<polygon style="fill:#1D1D1B;" points="386.716,235.207 391.676,234.873 391.742,235.635 386.751,235.959 					"/>
					<polygon style="fill:#1D1D1B;" points="396.615,234.334 401.522,233.566 401.662,234.342 396.716,235.104 					"/>
					<polygon style="fill:#1D1D1B;" points="406.38,232.547 411.17,231.255 411.404,232.033 406.565,233.325 					"/>
					<polygon style="fill:#1D1D1B;" points="415.871,229.676 420.464,227.808 420.802,228.572 416.157,230.449 					"/>
					<polygon style="fill:#1D1D1B;" points="424.936,225.657 429.277,223.253 429.713,223.995 425.326,226.411 					"/>
					<polygon style="fill:#1D1D1B;" points="433.498,220.633 437.614,217.849 438.119,218.574 433.973,221.364 					"/>
					<polygon style="fill:#1D1D1B;" points="441.661,214.956 445.678,212.01 446.215,212.742 442.187,215.681 					"/>
					<path style="fill:#1D1D1B;" d="M449.705,209.067c1.356-0.968,2.71-1.936,4.034-2.911l0.561,0.745
						c-1.354,0.992-2.706,1.954-4.057,2.913L449.705,209.067z"/>
					<polygon style="fill:#1D1D1B;" points="457.57,203.025 461.118,199.585 461.814,200.241 458.196,203.732 					"/>
					<path style="fill:#1D1D1B;" d="M464.3,195.819c0.987-1.313,1.893-2.684,2.688-4.114l0.856,0.477
						c-0.823,1.473-1.758,2.878-2.771,4.22L464.3,195.819z"/>
					<path style="fill:#1D1D1B;" d="M468.994,187.239c0.528-1.541,0.896-3.133,1.071-4.745l0.991,0.105
						c-0.176,1.695-0.572,3.36-1.124,4.962L468.994,187.239z"/>
					<path style="fill:#1D1D1B;" d="M469.957,177.652c-0.126-0.798-0.304-1.588-0.535-2.364c-0.221-0.777-0.529-1.53-0.831-2.29
						l0.895-0.379c0.314,0.781,0.637,1.568,0.873,2.389c0.245,0.816,0.435,1.648,0.57,2.49L469.957,177.652z"/>
					<path style="fill:#1D1D1B;" d="M466.208,168.769c-0.966-1.292-2.123-2.441-3.463-3.313l0.516-0.795
						c1.451,0.94,2.69,2.168,3.715,3.532L466.208,168.769z"/>
					<path style="fill:#1D1D1B;" d="M458.309,163.757c-0.795-0.094-1.592-0.187-2.396-0.138c-0.803,0.029-1.605,0.131-2.397,0.291
						l-0.184-0.905c0.837-0.17,1.688-0.281,2.546-0.314c0.86-0.053,1.721,0.042,2.575,0.143L458.309,163.757z"/>
					<path style="fill:#1D1D1B;" d="M448.941,165.518c-1.447,0.736-2.804,1.657-3.997,2.751l-0.61-0.662
						c1.257-1.158,2.677-2.126,4.193-2.902L448.941,165.518z"/>
					<path style="fill:#1D1D1B;" d="M442.01,172.066c-0.348,0.712-0.651,1.487-0.915,2.253c-0.262,0.771-0.483,1.557-0.662,2.353
						l-0.855-0.19c0.183-0.826,0.411-1.643,0.681-2.446c0.277-0.805,0.576-1.583,0.956-2.365L442.01,172.066z"/>
					<path style="fill:#1D1D1B;" d="M439.865,181.527c-0.027,1.634,0.102,3.272,0.364,4.89l-0.84,0.137
						c-0.274-1.663-0.411-3.351-0.387-5.04L439.865,181.527z"/>
					<path style="fill:#1D1D1B;" d="M441.391,191.195l0.839,2.316c0.149,0.382,0.336,0.744,0.502,1.117l0.513,1.112l-0.735,0.38
						l-0.534-1.148c-0.172-0.385-0.367-0.762-0.521-1.153l-0.864-2.366L441.391,191.195z"/>
					<polygon style="fill:#1D1D1B;" points="445.796,199.961 448.754,203.932 448.129,204.436 445.123,200.422 					"/>
					<polygon style="fill:#1D1D1B;" points="451.975,207.699 455.405,211.29 454.856,211.843 451.389,208.231 					"/>
					<polygon style="fill:#1D1D1B;" points="459.014,214.698 462.807,217.897 462.339,218.49 458.503,215.27 					"/>
					<polygon style="fill:#1D1D1B;" points="466.812,220.811 468.914,222.098 471.086,223.31 470.734,223.951 468.553,222.741 
						466.404,221.432 					"/>
					<polygon style="fill:#1D1D1B;" points="475.47,225.66 479.912,227.893 479.604,228.53 475.139,226.299 					"/>
					<polygon style="fill:#1D1D1B;" points="484.423,229.978 489.016,231.87 488.774,232.508 484.144,230.615 					"/>
					<path style="fill:#1D1D1B;" d="M493.706,233.487c1.581,0.479,3.181,0.894,4.799,1.197l-0.12,0.648
						c-1.65-0.304-3.273-0.721-4.873-1.202L493.706,233.487z"/>
					<polygon style="fill:#1D1D1B;" points="503.413,235.194 508.373,235.18 508.404,235.814 503.388,235.84 					"/>
					<path style="fill:#1D1D1B;" d="M513.304,234.697c1.633-0.246,3.252-0.58,4.845-1.01l0.16,0.59
						c-1.616,0.44-3.257,0.783-4.911,1.036L513.304,234.697z"/>
					<path style="fill:#1D1D1B;" d="M522.836,232.107c1.527-0.624,3.013-1.345,4.448-2.16l0.29,0.51
						c-1.454,0.83-2.962,1.567-4.511,2.204L522.836,232.107z"/>
					<path style="fill:#1D1D1B;" d="M531.422,227.239c1.322-0.988,2.584-2.057,3.785-3.19l0.387,0.409
						c-1.213,1.15-2.489,2.236-3.827,3.241L531.422,227.239z"/>
					<polygon style="fill:#1D1D1B;" points="538.637,220.469 541.75,216.601 542.181,216.923 539.052,220.83 					"/>
					<path style="fill:#1D1D1B;" d="M544.637,212.55c0.931-1.374,1.911-2.725,2.863-4.089l0.417,0.301
						c-0.948,1.363-1.916,2.706-2.846,4.085L544.637,212.55z"/>
					<polygon style="fill:#1D1D1B;" points="550.515,204.475 553.719,200.638 554.074,200.949 550.909,204.786 					"/>
					<polygon style="fill:#1D1D1B;" points="557.143,196.993 560.822,193.603 561.083,193.909 557.452,197.301 					"/>
					<path style="fill:#1D1D1B;" d="M564.79,190.555c1.373-0.948,2.797-1.822,4.269-2.607l0.157,0.292
						c-1.455,0.789-2.862,1.666-4.217,2.616L564.79,190.555z"/>
					<path style="fill:#1D1D1B;" d="M573.611,185.87c1.557-0.597,3.151-1.096,4.767-1.502l0.065,0.254
						c-1.604,0.415-3.183,0.922-4.725,1.525L573.611,185.87z"/>
					<path style="fill:#1D1D1B;" d="M583.283,183.41c1.65-0.232,3.314-0.36,4.979-0.39l0.004,0.192
						c-1.657,0.041-3.311,0.18-4.95,0.422L583.283,183.41z"/>
					<path style="fill:#1D1D1B;" d="M593.25,183.228c1.657,0.169,3.304,0.437,4.926,0.815l-0.027,0.119
						c-1.619-0.365-3.262-0.621-4.914-0.777L593.25,183.228z"/>
					<path style="fill:#1D1D1B;" d="M602.943,185.521c1.548,0.613,3.047,1.352,4.458,2.236l-0.028,0.045
						c-1.414-0.872-2.915-1.599-4.462-2.199L602.943,185.521z"/>
					<polygon style="fill:#1D1D1B;" points="611.33,190.888 612.957,192.785 611.318,190.9 					"/>
				</g>
			</g>
			<path style="fill:#F2E2C8;" d="M619.11,126.782c-10.52-0.069-19.108,9.048-19.183,20.363
				c-0.075,11.315,18.776,41.468,18.776,41.468s19.245-29.902,19.32-41.218C638.098,136.081,629.63,126.851,619.11,126.782z
				 M618.913,156.783c-5.657-0.037-10.212-4.736-10.174-10.495c0.038-5.759,4.655-10.397,10.312-10.36
				c5.656,0.037,10.212,4.736,10.174,10.495C629.186,152.182,624.57,156.82,618.913,156.783z"/>
			<path style="fill:#F2E2C8;" d="M622.404,196.359c0,1.833-1.486,3.319-3.319,3.319c-1.833,0-3.319-1.486-3.319-3.319
				s1.486-3.319,3.319-3.319C620.918,193.04,622.404,194.526,622.404,196.359z"/>
		</g>
	</g>
	<g>
		<g>
			<polygon style="fill:#606060;" points="288.042,407.253 314.723,407.01 341.404,406.87 394.766,406.754 448.128,406.868 
				474.809,407.008 501.489,407.253 474.809,407.498 448.128,407.638 394.766,407.752 341.404,407.636 314.723,407.496 			"/>
		</g>
		<g>
			<g>
				<g>
					<path style="fill:#E89C82;" d="M405.4,365.55c-0.604-2.733,1.101-5.473,1.006-8.247c-1.445,0.445-3.091,0.454-4.544,0.027
						c-0.161-0.047-0.357-0.096-0.49-0.008c-0.087,0.058-0.112,0.154-0.13,0.244c-0.444,2.104-0.651,4.295-1.862,6.194
						c-0.208,0.325-0.42,0.771-0.074,1.009"/>
				</g>
				<g>
					<path style="fill:#00021C;" d="M424.478,371.819c-4.594,0.261-8.359,0.47-12.953,0.732c-1.405,0.08-2.884,0.147-4.145-0.433
						c-0.695-0.32-1.393-0.842-2.151-0.683c-0.587,0.124-0.989,0.625-1.524,0.882c-0.469,0.226-1.015,0.252-1.541,0.273
						c-1.607,0.066-3.213,0.133-4.82,0.199c-0.53,0.022-1.115,0.028-1.522-0.289c-0.479-0.372-0.522-1.034-0.506-1.616
						c0.063-2.302,0.461-4.597,1.18-6.802c0.163-0.502,0.409-1.063,0.942-1.23c0.49-0.154,1.007,0.095,1.462,0.321
						c1.842,0.916,4.248,1.539,5.904,0.347c0.43-0.31,0.783-0.729,1.28-0.933c0.55-0.225,1.181-0.15,1.773-0.061
						c5.111,0.765,10.111,2.165,14.826,4.152c1.07,0.451,2.176,0.972,2.826,1.884c0.649,0.912,0.633,2.329-0.338,2.95"/>
				</g>
			</g>
			<g>
				<g>
					<g>
						<g>
							<path style="fill:#6EA652;" d="M327.077,241.399c-3.174-4.336-1.992-10.743,2.355-12.764
								c4.216,4.154,3.39,11.768-1.493,13.765"/>
						</g>
						<g>
							<path style="fill:#6EA652;" d="M338.107,241.51c-3.995-2.036-9.031,0.135-9.733,4.197c-0.061,0.354-0.086,0.75,0.117,1.085
								c0.186,0.306,0.523,0.494,0.847,0.639c3.443,1.544,7.577-0.16,8.469-3.49"/>
						</g>
						<g>
							<path style="fill:#6EA652;" d="M321.348,239.938c2.575,3.118,2.731,7.781,0.349,10.4c-0.164,0.18-0.373,0.363-0.635,0.325
								c-0.285-0.041-0.496-0.32-0.651-0.576c-1.91-3.152-1.66-7.23,0.588-9.582"/>
						</g>
					</g>
					<g>
						<g>
							<g>
								<path style="fill:#2D6E56;" d="M305.847,281.102c0.417-6.662,4.72-11.875,8.971-16.652c2.159-2.426,4.351-4.827,6.247-7.469
									c2.076-2.891,3.825-6.013,5.229-9.283c1.608-3.746,2.761-7.662,3.468-11.675c0.112-0.634-0.858-0.906-0.971-0.268
									c-1.286,7.296-4.068,14.29-8.34,20.357c-3.748,5.323-8.807,9.614-12.275,15.146c-1.877,2.994-3.115,6.3-3.337,9.843
									C304.8,281.749,305.807,281.746,305.847,281.102L305.847,281.102z"/>
							</g>
						</g>
						<g>
							<g>
								<path style="fill:#2D6E56;" d="M325.537,248.919c2.335-0.933,4.474-2.269,6.305-3.995c0.473-0.445-0.24-1.156-0.712-0.712
									c-1.697,1.6-3.695,2.87-5.861,3.736c-0.252,0.101-0.429,0.336-0.352,0.619C324.984,248.808,325.283,249.021,325.537,248.919
									L325.537,248.919z"/>
							</g>
						</g>
						<g>
							<g>
								<path style="fill:#2D6E56;" d="M321.248,245.789c-1.496,2.392-0.903,5.535,0.767,7.666c0.169,0.216,0.534,0.174,0.712,0
									c0.214-0.209,0.167-0.499,0-0.712c-1.395-1.781-1.848-4.466-0.609-6.446C322.462,245.746,321.591,245.24,321.248,245.789
									L321.248,245.789z"/>
							</g>
						</g>
					</g>
				</g>
				<g>
					
						<ellipse transform="matrix(0.1126 -0.9936 0.9936 0.1126 41.8422 535.1483)" style="fill:#C37134;" cx="320.515" cy="244.15" rx="17.883" ry="6.131"/>
					<g>
						<path style="fill:#F59052;" d="M317.192,239.447c0.776,1.286,2.462,2.625,3.962,2.704c1.5,0.079,3.019-0.628,3.926-1.825
							c-2.353,0.512-5.541,0.032-7.767-0.885"/>
					</g>
					<g>
						<path style="fill:#F59052;" d="M316.582,245.739c0.796,1.273,2.503,2.586,4.004,2.641c1.501,0.055,3.009-0.675,3.896-1.887
							c-2.345,0.549-5.539,0.12-7.78-0.761"/>
					</g>
					<g>
						<path style="fill:#F59052;" d="M316.147,252.087c0.661,1.096,2.097,2.236,3.375,2.304s2.572-0.535,3.344-1.555
							c-2.004,0.436-4.72,0.027-6.617-0.754"/>
					</g>
					<g>
						<path style="fill:#F59052;" d="M318.283,233.667c0.661,1.096,2.097,2.236,3.375,2.304c1.278,0.067,2.572-0.535,3.344-1.555
							c-2.004,0.436-4.72,0.027-6.617-0.754"/>
					</g>
				</g>
				<path style="fill:#F2E2C8;" d="M309.527,231.008l-0.021-3.743l4.731-0.027l0.02,3.536c0.007,1.221,0.534,2.382,1.451,3.19
					l1.473,1.3c1.374,1.212,2.165,2.953,2.176,4.785l0.167,29.381c0.004,0.823-0.659,1.493-1.481,1.498l-11.846,0.067
					c-0.823,0.005-1.493-0.658-1.498-1.481l-0.166-29.251c-0.011-1.907,0.825-3.72,2.283-4.95l1.19-1.005
					C308.977,233.488,309.534,232.279,309.527,231.008z"/>
				<g>
					<g>
						<path style="fill:#6EA652;" d="M300.746,247.373c-0.896-6.901-6.421-12.96-13.211-14.486
							c2.93,6.191,7.433,11.629,12.967,15.664"/>
					</g>
					<g>
						<path style="fill:#6EA652;" d="M302.974,248.113c2.468-7.633,0.299-16.571-5.394-22.223
							c-0.176,7.274,0.952,14.577,3.313,21.459"/>
					</g>
					<g>
						<path style="fill:#83BA63;" d="M302.934,246.494c3.246-2.925,4.488-7.874,3.007-11.985c-3.518,3.541-5.702,8.378-6.033,13.359
							"/>
					</g>
					<g>
						<path style="fill:#83BA63;" d="M301.911,248.411c0.457-5.739-2.094-11.635-6.591-15.229
							c-0.451,5.121,1.158,10.395,4.389,14.393"/>
					</g>
					<g>
						<g>
							<path style="fill:#FF9B4B;" d="M300.976,247.193c1.006-1.825,3.923-1.63,5.375-0.136c1.452,1.494,1.821,3.705,2.087,5.772
								c1.201,9.333,1.735,18.738,2.269,28.133c-0.946,0.351-1.775-0.712-2.222-1.617c-4.366-8.843-7.961-18.066-10.73-27.532
								c-0.268-0.915-0.528-1.89-0.265-2.806c0.263-0.916,1.266-1.686,2.155-1.344"/>
						</g>
						<g>
							<g>
								<g>
									<path style="fill:#E0853D;" d="M300.857,249.939c-0.943,0.258-1.885,0.517-2.828,0.775
										c-0.358,0.098-0.614,0.509-0.496,0.874c0.119,0.367,0.49,0.601,0.874,0.496c0.943-0.258,1.885-0.516,2.828-0.775
										c0.358-0.098,0.614-0.509,0.496-0.874C301.612,250.068,301.241,249.834,300.857,249.939L300.857,249.939z"/>
								</g>
							</g>
							<g>
								<g>
									<path style="fill:#E0853D;" d="M307.585,252.448c-0.869,0.252-1.737,0.505-2.606,0.757
										c-0.357,0.104-0.615,0.505-0.496,0.874c0.117,0.362,0.492,0.607,0.874,0.496c0.869-0.252,1.737-0.505,2.606-0.757
										c0.357-0.104,0.615-0.505,0.496-0.874C308.341,252.582,307.967,252.337,307.585,252.448L307.585,252.448z"/>
								</g>
							</g>
							<g>
								<g>
									<path style="fill:#E0853D;" d="M302.235,257.479c-0.672,0.16-1.331,0.367-1.974,0.619c-0.178,0.07-0.325,0.156-0.424,0.327
										c-0.089,0.152-0.127,0.377-0.072,0.547c0.056,0.172,0.162,0.338,0.326,0.425c0.159,0.084,0.373,0.14,0.547,0.072
										c0.643-0.252,1.302-0.459,1.974-0.619c0.362-0.086,0.611-0.518,0.496-0.874
										C302.987,257.599,302.623,257.387,302.235,257.479L302.235,257.479z"/>
								</g>
							</g>
							<g>
								<g>
									<path style="fill:#E0853D;" d="M308.679,260.293c-0.654,0.216-1.309,0.431-1.963,0.647
										c-0.175,0.058-0.33,0.164-0.424,0.327c-0.089,0.152-0.127,0.377-0.072,0.547c0.114,0.351,0.496,0.621,0.874,0.496
										c0.654-0.216,1.308-0.431,1.963-0.647c0.175-0.058,0.33-0.164,0.425-0.326c0.089-0.152,0.127-0.377,0.072-0.547
										C309.439,260.438,309.057,260.169,308.679,260.293L308.679,260.293z"/>
								</g>
							</g>
							<g>
								<g>
									<path style="fill:#E0853D;" d="M304.685,266.038c-0.458,0.081-0.917,0.161-1.375,0.242
										c-0.166,0.029-0.343,0.187-0.425,0.327c-0.089,0.152-0.127,0.377-0.072,0.547c0.056,0.172,0.162,0.338,0.327,0.425
										c0.056,0.024,0.113,0.048,0.17,0.072c0.126,0.034,0.252,0.034,0.378,0c0.458-0.081,0.917-0.161,1.375-0.242
										c0.166-0.029,0.343-0.187,0.424-0.326c0.089-0.152,0.127-0.377,0.072-0.547c-0.056-0.172-0.162-0.338-0.326-0.424
										c-0.057-0.024-0.113-0.048-0.17-0.072C304.937,266.004,304.811,266.004,304.685,266.038L304.685,266.038z"/>
								</g>
							</g>
							<g>
								<g>
									<path style="fill:#E0853D;" d="M309.372,268.517c-0.406,0.159-0.828,0.269-1.26,0.329c0.063-0.008,0.126-0.017,0.189-0.025
										c-0.063,0.008-0.126,0.016-0.189,0.023c-0.098-0.004-0.189,0.017-0.274,0.061c-0.088,0.029-0.164,0.078-0.229,0.147
										c-0.123,0.123-0.216,0.325-0.208,0.502c0.008,0.184,0.069,0.374,0.208,0.502c0.13,0.12,0.318,0.227,0.502,0.208
										c0.562-0.058,1.111-0.171,1.638-0.377c0.092-0.022,0.173-0.064,0.242-0.127c0.077-0.05,0.138-0.117,0.183-0.199
										c0.089-0.152,0.127-0.377,0.072-0.547c-0.056-0.172-0.162-0.338-0.326-0.424
										C309.761,268.504,309.547,268.448,309.372,268.517L309.372,268.517z"/>
								</g>
							</g>
							<g>
								<g>
									<path style="fill:#E0853D;" d="M302.939,245.243c-0.31,0.218-0.633,0.415-0.971,0.586c-0.348,0.176-0.551,0.26-0.949,0.389
										c-0.36,0.116-0.728,0.206-1.102,0.269c-0.009,0.001-0.227,0.035-0.111,0.019c-0.1,0.014-0.201,0.024-0.301,0.032
										c-0.201,0.018-0.402,0.026-0.604,0.029c-0.371,0.005-0.728,0.324-0.71,0.71c0.017,0.381,0.312,0.715,0.71,0.71
										c1.69-0.021,3.37-0.544,4.754-1.518c0.303-0.213,0.475-0.631,0.255-0.972C303.717,245.197,303.264,245.014,302.939,245.243
										L302.939,245.243z"/>
								</g>
							</g>
						</g>
					</g>
				</g>
				<rect x="297.144" y="278.572" style="fill:#EDC2AF;" width="47.097" height="34.919"/>
				<rect x="288.666" y="245.671" style="fill:#D2AB94;" width="48.981" height="33.242"/>
				<g>
					<g>
						<path style="fill:#00021C;" d="M304.485,245.437c2.834,9.473,5.797,18.907,8.803,28.327c3.007,9.422,6.06,18.83,9.078,28.249
							c1.669,5.208,3.328,10.42,4.961,15.64c0.191,0.612,1.157,0.351,0.964-0.266c-2.925-9.346-5.93-18.667-8.933-27.989
							c-3.041-9.439-6.081-18.879-9.042-28.344c-1.653-5.285-3.28-10.578-4.868-15.883
							C305.265,244.556,304.3,244.818,304.485,245.437L304.485,245.437z"/>
					</g>
				</g>
				<g>
					<g>
						<path style="fill:#00021C;" d="M313.639,317.863c2.121-9.443,4.19-18.896,6.247-28.353c2.032-9.342,4.052-18.686,6.102-28.024
							c1.175-5.352,2.359-10.702,3.56-16.048c0.141-0.627-0.823-0.895-0.964-0.266c-2.121,9.442-4.19,18.896-6.247,28.353
							c-2.032,9.342-4.052,18.686-6.102,28.024c-1.175,5.352-2.36,10.702-3.56,16.048
							C312.534,318.224,313.498,318.491,313.639,317.863L313.639,317.863z"/>
					</g>
				</g>
			</g>
			<g>
				<rect x="293.926" y="313.491" style="fill:#2A232D;" width="56.988" height="4.003"/>
				
					<rect x="304.724" y="323.042" transform="matrix(0.7071 0.7071 -0.7071 0.7071 322.3945 -129.5688)" style="fill:#2A232D;" width="25.754" height="2.677"/>
				<rect x="358.371" y="371.277" style="fill:#00021C;" width="85.717" height="10.361"/>
				<g>
					<path style="fill:#38303B;" d="M313.576,370.296c-2.093-24.281,11.349-38.043,19.467-45.423
						c6.908-6.28,17.169-10.595,21.77-11.722c15.385-3.768,22.533-2.281,36.422-0.419c-7.326,8.373-10.767,11.071-14.862,21.142
						c-3.873,9.524-5.034,14.865-2.721,23.653c2.093,7.954,9.004,10.402,13.606,10.675c21.142,1.256,28.275-1.284,40.608-12.769
						c11.606-10.807,16.628-28.363,16.088-44.212c-0.504-14.805-5.302-29.112-11.288-42.697c-0.868-1.97,0.111-4.27,2.137-5
						c0.423-0.153,1.056-0.373,2.092-0.758c1.815-0.675,3.873-1.251,5.639-0.454c1.268,0.572,2.139,1.751,2.916,2.904
						c10.99,16.325,20.946,47.359,19.467,66.983c-1.479,19.624-5.952,25.627-11.931,44.376
						c-36.213,2.564-81.897,1.622-135.588,1.151"/>
				</g>
				<g>
					<path style="fill:#2A232D;" d="M314.808,356.032l40.647,22.062c4.885,0.046,9.691,0.087,14.413,0.12
						c0.173-2.018,0.346-4.035,0.52-6.053c0.507-5.912,1.012-11.894,0.082-17.755c-0.931-5.86-3.313-12.204-7.913-15.953
						c-3.966-3.233-11.012-5.939-16.118-6.28c-8.558-0.57-15.219,0.594-22.959,3.793C319.685,341.208,316.307,347.8,314.808,356.032
						z"/>
				</g>
				<g>
					<path style="fill:#2A232D;" d="M458.868,319.511c-0.576,12.8-3.579,25.665-10.126,36.679l9.649,4.949
						c3.214-8.805,5.537-15.838,6.524-28.94c0.955-12.67-2.86-30.092-8.639-45.244C458.154,297.715,459.359,308.612,458.868,319.511
						z"/>
				</g>
				<g>
					<path style="fill:#2A232D;" d="M350.717,318.326c5.755,1.538,11.617,2.676,17.529,3.403c2.779,0.342,5.664,0.622,8.094,2.015
						c1.379,0.791,2.568,2.058,3.2,3.499c2.999-5.241,6.289-8.332,11.695-14.51c-13.889-1.863-21.037-3.349-36.422,0.419
						c-2.045,0.501-5.209,1.634-8.698,3.287C347.447,317.364,349.12,317.899,350.717,318.326z"/>
				</g>
				<g>
					<path style="fill:#2A232D;" d="M463.871,274.653c1.073,0.025,2.125-0.17,3.071-0.6c0.955-0.399,1.82-0.991,2.539-1.716
						c1.431-1.438,2.372-3.401,2.263-5.381c-0.076-1.981-1.194-3.849-2.752-5.147c-0.782-0.655-1.698-1.165-2.686-1.474
						c-0.982-0.342-2.047-0.438-3.113-0.315c1.022-0.346,2.153-0.359,3.237-0.16c1.081,0.23,2.113,0.697,3.03,1.337
						c1.826,1.273,3.171,3.383,3.284,5.712c0.101,2.329-1.042,4.555-2.742,5.99c-0.853,0.722-1.836,1.283-2.892,1.612
						C466.048,274.811,464.921,274.903,463.871,274.653z"/>
				</g>
				<g>
					<path style="fill:#38303B;" d="M450.414,281.277c0.183-1.945,1.346-3.773,3.03-4.764c1.684-0.991,3.847-1.119,5.636-0.335
						c1.069,0.469,1.989,1.231,3.058,1.7c1.661,0.729,3.071,1.001,4.694,0.191c0.248-0.124,0.496-0.272,0.648-0.503
						c0.191-0.291,0.471-1.064,0.471-1.413c-0.001-5.119,0.046-10.156-0.459-15.251c-0.109-1.095,0.165-2.228-0.483-3.117
						c-0.468-0.642-1.164-1.089-1.901-1.385c-1.942-0.781-4.676-0.565-6.423,0.588c-2.757,1.819-3.805,5.467-6.459,7.433
						c-2.773,2.054-4.998,2.784-8.923-1.612c-1.197-1.34-4.684,1.838-6.357,2.494"/>
				</g>
				<g>
					<path style="fill:#2A232D;" d="M467.924,269.48c-2.085,1.518-4.709,2.286-7.282,2.092c-1.402-0.106-2.799-0.481-4.197-0.326
						c-1.764,0.197-3.315,1.211-4.791,2.196c-0.253,0.169-0.522,0.359-0.615,0.648c-0.109,0.339,0.058,0.698,0.22,1.015
						c0.377,0.735,0.754,1.47,1.131,2.205c0.323-0.302,0.673-0.574,1.054-0.798c1.684-0.991,3.847-1.119,5.636-0.335
						c1.069,0.469,1.989,1.231,3.058,1.7c1.661,0.729,3.071,1.001,4.694,0.191c0.248-0.124,0.496-0.272,0.648-0.503
						c0.191-0.291,0.471-1.064,0.471-1.413C467.95,273.917,467.956,271.697,467.924,269.48z"/>
				</g>
				<path style="fill:#00021C;" d="M316.218,370.191h-10.832c-2.471,0-4.474-2.003-4.474-4.474l0,0c0-2.471,2.003-4.474,4.474-4.474
					h10.832c2.471,0,4.474,2.003,4.474,4.474l0,0C320.693,368.188,318.689,370.191,316.218,370.191z"/>
				
					<ellipse transform="matrix(0.7438 -0.6684 0.6684 0.7438 -171.2273 323.3137)" style="fill:#38303B;" cx="336.156" cy="385.027" rx="22.842" ry="22.842"/>
				<path style="fill:#FFFFFF;" d="M350.076,385.027c0,7.688-6.232,13.92-13.92,13.92c-7.688,0-13.92-6.232-13.92-13.92
					c0-7.688,6.232-13.92,13.92-13.92C343.844,371.107,350.076,377.339,350.076,385.027z"/>
				
					<ellipse transform="matrix(0.1596 -0.9872 0.9872 0.1596 -97.5555 655.4559)" style="fill:#2A232D;" cx="336.201" cy="385.027" rx="11.176" ry="11.176"/>
				<path style="fill:#F2E2C8;" d="M368.627,382.397c-1.675,8.373-61.75,7.068-61.75-2.18c0-13.709,6.803-41.764,37.992-41.764
					C374.384,338.453,371.42,368.434,368.627,382.397z"/>
				
					<ellipse transform="matrix(0.2275 -0.9738 0.9738 0.2275 -21.6077 742.8148)" style="fill:#38303B;" cx="457.388" cy="385.027" rx="22.842" ry="22.842"/>
				
					<ellipse transform="matrix(0.2283 -0.9736 0.9736 0.2283 -21.9103 742.4093)" style="fill:#FFFFFF;" cx="457.388" cy="385.027" rx="14.339" ry="14.339"/>
				<path style="fill:#2A232D;" d="M468.9,385.027c0,6.358-5.154,11.512-11.512,11.512s-11.512-5.154-11.512-11.512
					c0-6.358,5.154-11.512,11.512-11.512S468.9,378.669,468.9,385.027z"/>
				<path style="fill:#F2E2C8;" d="M486.609,380.217c0,8.274-59.088,9.248-59.088,0c0-13.709,10.422-28.621,26.719-29.428
					C475.382,349.743,486.609,366.508,486.609,380.217z"/>
				<g>
					<g>
						<path style="fill:#2A232D;" d="M311.796,378.025c0.285-3.337,0.888-6.652,1.807-9.891c0.908-3.242,2.196-6.39,3.86-9.337
							c1.678-2.933,3.761-5.675,6.322-7.903c1.278-1.113,2.651-2.111,4.102-2.97c1.468-0.831,2.992-1.554,4.579-2.093
							c-3.006,1.469-5.793,3.332-8.161,5.629c-2.367,2.297-4.354,4.958-5.974,7.831c-1.645,2.863-2.929,5.928-3.997,9.069
							C313.277,371.508,312.489,374.75,311.796,378.025z"/>
					</g>
					<g>
						<path style="fill:#2A232D;" d="M318.902,372.064c0.145-3.315,1.123-6.605,2.736-9.545c1.625-2.919,3.961-5.544,6.904-7.111
							c-2.468,2.211-4.471,4.764-6.03,7.596C320.933,365.827,319.825,368.884,318.902,372.064z"/>
					</g>
					<g>
						<path style="fill:#2A232D;" d="M481.033,379.166c-0.201-1.828-0.637-3.588-1.195-5.298c-0.575-1.705-1.281-3.363-2.143-4.936
							c-0.845-1.583-1.837-3.086-2.953-4.493c-1.13-1.396-2.378-2.71-3.836-3.832c1.665,0.79,3.157,1.961,4.425,3.32
							c1.281,1.354,2.351,2.898,3.244,4.531c0.877,1.643,1.571,3.386,2.01,5.195C481.035,375.454,481.22,377.334,481.033,379.166z"
							/>
					</g>
					<g>
						<path style="fill:#2A232D;" d="M475.874,380.119c-0.38-2.046-0.919-3.952-1.673-5.803c-0.366-0.926-0.797-1.826-1.278-2.698
							c-0.495-0.868-1.029-1.703-1.75-2.458c0.97,0.416,1.762,1.197,2.402,2.028c0.649,0.839,1.149,1.779,1.553,2.752
							c0.386,0.981,0.677,2.001,0.814,3.046C476.084,378.027,476.094,379.095,475.874,380.119z"/>
					</g>
				</g>
				<g>
					<path style="fill:#00021C;" d="M440.924,273.605c-1.237-1.048-3.044-1.03-4.272,0.03c-4.579,3.954-7.961,7.504-13.024,11.609
						c-0.323,0.262-0.577,0.615-0.733,1.001c-0.35,0.862,0.047,1.84,0.522,2.639c0.756,1.271,2.112,2.538,3.513,2.086
						c0.473-0.153,0.865-0.486,1.243-0.811c4.377-3.774,8.675-7.642,12.889-11.6C442.502,277.207,442.431,274.883,440.924,273.605
						L440.924,273.605z"/>
				</g>
				<g>
					<path style="fill:#83BA63;" d="M436.972,278.893c-1.712-3.066-6.054-4.181-9.172-2.566c-0.847,0.439-1.605,1.041-2.469,1.445
						c-1.345,0.63-2.865,0.747-4.347,0.855c-0.973,0.071-1.901,0.06-2.816,0.002c-0.049,2.043-0.098,4.086-0.147,6.129
						c2.148,0.105,4.302,0.211,5.869,0.212c0.377,0,0.845-0.512,1.151-0.733c0.353-0.255,1.13-1.186,1.465-1.465
						c1.256-1.047,1.623-1.866,3.408-1.23c1.785,0.636,2.873,2.781,2.333,4.597c-0.095,0.321-0.235,0.658-0.135,0.978
						c0.195,0.622,1.073,0.649,1.692,0.443C437.134,286.449,438.684,281.958,436.972,278.893z"/>
				</g>
			</g>
			<g>
				<g>
					<path style="fill:#F7B094;" d="M392.726,365.104c0.377-1.893,0.923-3.761,1.634-5.584c0.049-0.125,0.102-0.254,0.218-0.344
						c0.149-0.116,0.37-0.142,0.576-0.161c1.887-0.182,3.782-0.314,5.681-0.395c-0.575,2.811-0.899,5.661-0.969,8.518"/>
				</g>
				<g>
					<g>
						<path style="fill:#408463;" d="M360.72,308.252c-4.054-4.01-5.059-15.85-0.644-19.459c5.885-4.81,15.698-1.957,21.029-0.671
							c8.514,2.054,19.885,4.069,29.319,6.725c6.311,1.777,10.732,3.809,13.627,7.305c3.847,4.645,1.584,10.713-1.402,19.049
							c-5.295,14.78-9.477,24.517-15.578,38.51c-0.272,0.623-0.888,1.032-1.568,1.042c-1.852,0.026-3.362,0.086-5.428-0.159
							c-0.703-0.083-1.496-0.22-1.886-0.81c-0.38-0.575-0.176-1.328-0.034-2.003c3.847-18.309,2.804-28.544,10.104-42.485
							c-13.782,0.477-26.125-0.873-39.293-4.97"/>
					</g>
					<g>
						<g>
							<g>
								<path style="fill:#EA8F18;" d="M436.654,279.042c0.101,0.307-0.256-0.464-0.573-0.403
									c-7.367,1.408-10.422,1.445-16.641,1.727c-5.318,0.241-12.971-0.917-16.828-1.754c-3.592-0.78-8.754-2.688-11.382-6.912
									c-4.593-7.382-8.381-13.068-11.966-20.988c-2.441-5.392-4.961-10.038-3.537-15.973c0.334-1.391,2.019-3.564,4.237-5.143
									c3.529-2.513,7.778-0.946,10.433,1.161c3.558,2.826,4.755,7.538,5.882,10.735c2.377,6.743,3.483,12.442,5.86,19.185
									c1.056,2.996,2.304,6.234,5.044,7.842c1.568,0.921,3.427,1.175,5.231,1.41c7.287,0.951,14.322,1.143,21.601,2.071
									c0.207,0.026,0.382,0.17,0.447,0.368L436.654,279.042z"/>
							</g>
							<g>
								<path style="fill:#EA8F18;" d="M402.259,267.357c1.135-0.043,2.176-0.01,3.311-0.053"/>
							</g>
							<g>
								<path style="fill:#EA8F18;" d="M405.069,267.043c-2.078-2.062-2.522-5.122-3.383-7.92"/>
							</g>
						</g>
						<g>
							<path style="fill:#F2E2C8;" d="M355.074,297.321c0.938-16.264,4.214-21.398,3.611-37.678
								c-0.314-8.478-2.099-16.402,0.628-23.549c2.142-5.614,8.3-10.954,14.486-10.904c3.517,0.028,9.905,0.968,14.361,4.343
								c7.391,5.598,6.787,14.96,7.261,24.144c0.82,15.873-1.884,31.398,0,48.039"/>
						</g>
					</g>
					<g>
						<path style="fill:#4C9374;" d="M356.801,308.938c-3.986-4.078-4.79-15.934-0.314-19.467c5.966-4.71,15.729-1.69,21.037-0.314
							c8.478,2.198,19.813,4.405,29.2,7.222c6.28,1.884,10.665,3.991,13.501,7.536c3.768,4.71,1.402,10.738-1.725,19.022
							c-5.447,14.43-10.41,24.115-16.623,37.623c-0.465,1.012-1.5,1.639-2.613,1.592c-1.294-0.055-2.25,0.026-4.003-0.212
							c-0.701-0.095-1.492-0.245-1.872-0.842c-0.37-0.582-0.153-1.331,0-2.003c4.157-18.241,3.288-28.492,10.823-42.308
							c-13.788,0.243-26.107-1.316-39.203-5.636"/>
					</g>
					<g>
						<path style="fill:#38303B;" d="M383.092,217.582c-5.457,0.451-12.064-1.604-13.422-5.446c-1.75-4.949-2.953-7.04-3.192-10.649
							c-0.207-3.122-0.617-5.105,1.134-8.116c1.752-3.011,5.22-5.792,9.759-6.914c3.071-0.759,6.374-0.713,9.474-0.367
							c2.022,0.226,2.707,2.805,1.344,3.889c-22.465,17.864,0.031,3.548,2.241,3.576c2.171,0.028-2.022,1.278-1.302,2.498
							c0.826,1.398,0.89,2.284-0.357,3.805c-0.709,0.864,2.007,2.745,0.323,5.399c-1.522,2.399,0.55,10.949-3.053,11.958"/>
					</g>
					<path style="fill:#F7B094;" d="M375.286,226.91c-0.971-0.781-1.686-0.94-1.544-2.303c0.356-3.424,0.865-5.436,1.115-7.75
						c0.103-0.951,0.206-1.903,0.345-2.851c0.031-0.215,0.073-0.447,0.213-0.598c0.117-0.127,0.28-0.171,0.435-0.198
						c1.526-0.257,2.908,0.707,4.362,1.146c1.777,0.537,3.714,0.285,5.51,0.75c0.216,0.056,0.452,0.143,0.548,0.372
						c0.056,0.133,0.052,0.291,0.048,0.443c-0.072,2.751-0.366,5.565-0.49,9.024c-0.028,0.779,0.017,2.082-0.297,2.789l-0.97,0.784
						c-0.914,0.825-4.329,0.589-6.055-0.196C378.505,228.323,376.33,227.75,375.286,226.91z"/>
					<path style="fill:#E89C82;" d="M375.415,213.409c0.117-0.127,0.28-0.171,0.435-0.198c1.526-0.257,2.908,0.707,4.362,1.146
						c1.777,0.536,3.714,0.285,5.51,0.75c0.216,0.056,0.452,0.143,0.548,0.372c0.055,0.133,0.052,0.291,0.048,0.443
						c-0.04,1.538-0.081,3.075-0.122,4.613c-1.683,0.943-3.491,1.503-5.296,1.453c-2.479-0.068-4.906-1.443-6.189-3.775
						c0.049-0.452,0.098-0.903,0.146-1.355c0.103-0.951,0.206-1.903,0.345-2.851C375.233,213.793,375.275,213.561,375.415,213.409z"
						/>
					<path style="fill:#F7B094;" d="M371.799,208.094c-1.869-0.727-3.735-2.176-3.648-3.684c0.087-1.507,2.064-2.785,4.073-2.388"/>
					<g>
						<path style="fill:#F7B094;" d="M371.907,209.31c1.08,7.547,6.248,8.966,11.554,11.215c0.938,0.397,2.557,0.676,3.612,0.658
							c2.591-0.045,4.073-2.334,4.853-4.317c1.357-3.452,2.286-7.015,2.768-10.621c0.332-2.481,1.001-6.397,0.066-8.786
							c-0.935-2.389-3.642-3.244-6.609-4.004c-3.695-0.946-7.711,0.531-10.555,2.618c-4.196,3.08-6.764,7.778-5.821,12.312"/>
					</g>
					<path style="fill:#38303B;" d="M387.23,200.391c-0.093,0.052-0.011,0.167,0.109,0.192c0.12,0.025,0.245-0.007,0.36-0.035
						c1.397-0.349,3.066-0.234,4.386,0.301c0.203,0.082,0.407,0.176,0.639,0.196c0.232,0.021,0.499-0.065,0.521-0.217
						c0.01-0.066-0.027-0.132-0.072-0.192c-0.191-0.256-0.541-0.447-0.91-0.594c-1.193-0.477-2.703-0.565-3.947-0.23
						c-0.466,0.125-0.912,0.319-1.134,0.617"/>
					<path style="opacity:0.47;fill:#ED825D;" d="M380.935,207.599c-1.088,1.533-0.684,3.659,0.845,4.888
						c1.528,1.229,3.649,0.983,4.737-0.549c1.088-1.533,0.731-3.771-0.797-5.001C384.19,205.708,382.022,206.066,380.935,207.599z"
						/>
					<path style="fill:#38303B;" d="M389.235,204.263c-0.209,0.865,0.046,1.661,0.571,1.778c0.525,0.117,1.12-0.49,1.33-1.356
						c0.21-0.865-0.046-1.661-0.571-1.778C390.04,202.79,389.444,203.397,389.235,204.263z"/>
					<g>
						<path style="fill:#38303B;" d="M388.094,190.893c6.796-3.688-3.046-4.918-8.088-4.8c-1.201,0.028-3.279,2.712-4.479,2.774
							c-3.236,0.166-5.901,2.89-6.669,5.878c-0.767,2.988-0.462,3.381,0.783,6.196l2.523,0.713c0.016-0.023-0.059,1.052,0.008,2.156
							c0.008,0.124-0.049,1.275,0.211,1.749c0.361,0.657,1.342,0.556,1.574-0.157c1.309-4.009,3.173-7.482,6.885-9.063
							c1.004-0.296,2.034-0.506,3.078-0.608c2.352-0.228,1.738-0.351,4.097-0.472c2.359-0.121,2.046-0.454,3.776-1.996
							C393.691,191.57,385.931,192.067,388.094,190.893z"/>
					</g>
					<g>
						<g>
							<path style="fill:#38303B;" d="M392.491,203.257c-0.536-0.486-1.297-0.731-2-0.837c-0.725-0.11-1.577-0.134-2.24,0.233
								c-0.399,0.221-0.042,0.834,0.358,0.612c0.501-0.278,1.218-0.241,1.761-0.151c0.55,0.091,1.195,0.259,1.62,0.645
								C392.327,204.064,392.829,203.564,392.491,203.257L392.491,203.257z"/>
						</g>
					</g>
					<g>
						<defs>
							<path id="SVGID_1_" d="M392.563,216.593c0.173-0.586,0.422-1.529,0.554-2.33c0.02-0.122,0.032-0.249-0.02-0.362
								c-0.059-0.129-0.197-0.2-0.326-0.258c-0.729-0.33-1.5-0.565-2.289-0.697c-0.481-0.08-0.987-0.12-1.444,0.047
								c-0.458,0.167-0.853,0.59-0.848,1.077c0.002,0.187,0.06,0.37,0.136,0.541c0.119,0.27,0.282,0.521,0.48,0.74
								c0.371,0.41,0.854,0.699,1.333,0.976c0.783,0.452,1.581,0.893,2.445,1.158"/>
						</defs>
						<clipPath id="SVGID_00000026869509514642067370000007814680201742735038_">
							<use xlink:href="#SVGID_1_"  style="overflow:visible;"/>
						</clipPath>
						<g style="clip-path:url(#SVGID_00000026869509514642067370000007814680201742735038_);">
							<path style="fill:#E66E60;" d="M397.064,214.719c-1.715,1.41-3.394,1.703-5.455,1.029c-0.643-0.21-2.106-1.414-2.343-2.044
								c2.475,1.26,5.164,1.655,7.847,0.923"/>
						</g>
						<g style="clip-path:url(#SVGID_00000026869509514642067370000007814680201742735038_);">
							<path style="fill:#FFFFFF;" d="M397.064,214.719c-1.787,0.575-3.861,0.574-6.527-0.232c-0.604-0.182-1.194-0.468-1.46-0.859
								c2.521,0.876,5.615,1.262,8.247,0.95L397.064,214.719z"/>
						</g>
					</g>
					<g>
						<path style="fill:#F2E2C8;" d="M374.81,209.579c0.188,1.456,0.375,2.912,0.563,4.369c0.099,0.768,0.202,1.55,0.529,2.252
							c0.744,1.595,2.465,2.452,4.062,3.19c3.258,1.506,7.045,3.022,10.301,1.512c1.494-0.693,2.202-1.657,2.866-3.163
							c0.68-1.541,0.81-2.654,1.189-4.097c0.332-1.265,2.816-2.455,2.587-3.746c-0.071-0.399-0.733-1.428-0.958-1.765
							c-0.534-0.797-1.076-2.254-1.337-1.636c-0.296,0.7-2.572,2.265-3.258,2.593c-1.939,0.926-4.188,0.848-6.335,0.751
							c-3.205-0.145-6.764-0.447-8.935-2.81c-1.897-2.065-1.582-3.949-3.913-5.191c0.613,0.645,1.719,4.112,2.635,7.384"/>
					</g>
					<path style="fill:#4C9374;" d="M410.043,198.503l-0.012-0.708c-0.008-0.486-0.401-0.878-0.887-0.885l-13.553-0.209
						c-0.789-6.16-5.243-11.408-11.53-12.773c-8.035-1.745-15.997,3.512-17.784,11.741c-0.222,1.023-0.338,2.044-0.355,3.051
						l29.788,0.527c0.001-0.015-0.001-0.029,0-0.044l13.419,0.217C409.637,199.428,410.052,199.013,410.043,198.503z"/>
					<path style="fill:#408463;" d="M409.144,196.91l-13.553-0.209c-0.007-0.053-0.019-0.105-0.026-0.158l-29.615,1.516
						c-0.013,0.221-0.024,0.442-0.028,0.662l29.788,0.527c0.001-0.015-0.001-0.029,0-0.044l13.419,0.217
						c0.509,0.008,0.924-0.407,0.915-0.917l-0.012-0.708C410.022,197.309,409.63,196.917,409.144,196.91z"/>
					<g>
						<g>
							<path style="fill:#EA8F18;" d="M372.875,225.911c2.465,2.053,5.452,3.308,8.644,3.636c1.758,0.181,5.374,0.678,5.36-2.009
								c-0.006-1.128-1.76-1.131-1.754,0c0.001,0.214,0.001,0.214-0.207,0.283c-0.345,0.115-0.715,0.117-1.075,0.114
								c-0.965-0.007-1.969-0.068-2.921-0.22c-2.488-0.397-4.867-1.429-6.807-3.045
								C373.253,223.953,372.006,225.187,372.875,225.911L372.875,225.911z"/>
						</g>
					</g>
					<g>
						<path style="fill:#00021C;" d="M346.776,316.706c-6.241-0.707-10.818-5.695-11.612-9.215
							c-0.326-1.445-0.155-3.061,1.071-4.174c1.513-1.375,4.216-1.586,6.453-1.09c2.237,0.497,4.18,1.562,6.227,2.422
							c9.728,4.085,21.43,3.445,32.483,3.438c1.924-0.001,3.9,0.028,5.688,0.582c2.795,0.866,4.752,2.926,5.748,5.135
							c0.996,2.209,1.163,4.585,1.321,6.923c0.062,0.912-0.164,1.948-1.084,2.515c-1.031,0.636-2.419,0.256-3.326-0.486
							c-0.906-0.742-1.38-1.736-2.115-2.586c-2.891-3.339-8.916-3.732-14.087-3.644
							C365.253,316.666,346.776,316.706,346.776,316.706z"/>
					</g>
					<g>
						<path style="fill:#F7B094;" d="M412.271,284.552c3.105,0.002,8.512,0.417,11.617,0.419c0.377,0,0.845-0.512,1.151-0.733
							c0.353-0.255,1.13-1.186,1.465-1.465c1.256-1.047,1.623-1.866,3.408-1.23c1.785,0.636,2.873,2.781,2.333,4.597
							c-0.095,0.321-0.235,0.658-0.135,0.978c0.195,0.622,1.073,0.649,1.692,0.443c3.331-1.112,4.881-5.602,3.169-8.668
							c-1.712-3.066-6.054-4.181-9.172-2.566c-0.847,0.439-1.605,1.041-2.469,1.445c-1.345,0.63-2.865,0.747-4.347,0.855
							c-2.354,0.171-4.444-0.117-6.724-0.459c-2.093-0.314-4.639-0.804-5.547-1.256"/>
					</g>
					<g>
						<g>
							<path style="fill:#EFB93F;" d="M412.793,284.416c0.049,0.319-0.202,0.61-0.525,0.618c-7.498,0.178-12.771-0.228-18.953-0.971
								c-5.285-0.635-10.437-2.009-14.103-3.468c-3.415-1.36-8.121-6.285-10.02-10.883c-3.318-8.036-6.12-14.267-8.357-22.668
								c-1.523-5.72-3.245-10.717-0.865-16.337c0.557-1.317,2.577-3.184,5.024-4.377c3.894-1.899,7.937-0.644,9.942,2.089
								c2.005,2.733,3.61,8.987,4.197,12.325c1.237,7.042,1.392,12.845,2.629,19.887c0.549,3.129,1.249,6.527,3.687,8.564
								c1.396,1.166,3.188,1.722,4.928,2.25c7.032,2.135,13.94,3.48,20.968,5.591c0.199,0.06,0.349,0.231,0.38,0.437
								L412.793,284.416z"/>
						</g>
						<g>
							<g>
								<path style="fill:#EA8F18;" d="M413.023,284.819c-0.006-1.699-0.117-3.403-0.354-5.086c-0.138-0.983-0.267-1.99-0.963-2.748
									c-0.733-0.797-1.81-1.243-2.815-1.582c-1.163-0.392-2.371-0.639-3.575-0.865c-3.147-0.589-6.249-1.328-9.336-2.182
									c-1.818-0.503-3.631-1.033-5.424-1.62c-1.675-0.548-3.356-1.191-4.779-2.256c-2.351-1.758-4.141-5.248-7.492-5.047
									c-0.639,0.038-0.644,1.039,0,1c2.786-0.167,4.518,2.858,6.396,4.444c2.503,2.115,5.87,2.946,8.947,3.848
									c3.257,0.955,6.565,1.882,9.906,2.5c2.167,0.401,4.562,0.661,6.516,1.751c1.025,0.571,1.362,1.249,1.555,2.371
									c0.31,1.798,0.412,3.649,0.418,5.471C412.025,285.463,413.025,285.464,413.023,284.819L413.023,284.819z"/>
							</g>
						</g>
						<g>
							<g>
								<path style="fill:#EA8F18;" d="M380.631,267.527c1.069,0.138,2.184,0.351,3.275,0.492c0.26,0.034,0.511-0.254,0.5-0.5
									c-0.013-0.3-0.221-0.464-0.5-0.5c-1.069-0.138-2.184-0.351-3.275-0.492c-0.26-0.034-0.511,0.254-0.5,0.5
									C380.144,267.326,380.352,267.491,380.631,267.527L380.631,267.527z"/>
							</g>
						</g>
						<g>
							<g>
								<path style="fill:#EA8F18;" d="M383.885,266.927c-0.939-1.344-1.338-2.901-1.562-4.505c-0.224-1.608-0.363-3.229-0.566-4.84
									c-0.444-3.517-0.785-7.046-1.242-10.561c-0.447-3.44-0.992-6.875-1.858-10.238c-0.681-2.647-1.469-5.475-2.962-7.799
									c-1.564-2.434-3.952-3.76-6.833-3.918c-0.643-0.035-0.641,0.965,0,1c2.58,0.141,4.683,1.356,6.051,3.55
									c1.451,2.327,2.204,5.129,2.864,7.762c1.67,6.657,2.132,13.528,2.995,20.316c0.41,3.231,0.312,6.962,2.25,9.738
									C383.388,267.955,384.255,267.456,383.885,266.927L383.885,266.927z"/>
							</g>
						</g>
					</g>
				</g>
				<g>
					<path style="fill:#2A232D;" d="M418.66,373.373c-4.599,0.145-8.368,0.259-12.967,0.405c-1.407,0.044-2.887,0.074-4.133-0.537
						c-0.687-0.337-1.372-0.877-2.133-0.737c-0.59,0.109-1.004,0.6-1.546,0.843c-0.475,0.214-1.021,0.226-1.548,0.234
						c-1.608,0.026-3.216,0.052-4.823,0.077c-0.53,0.008-1.115,0-1.514-0.327c-0.469-0.384-0.495-1.047-0.465-1.628
						c0.121-2.3,0.577-4.584,1.351-6.77c0.176-0.497,0.436-1.053,0.973-1.206c0.493-0.141,1.005,0.12,1.454,0.358
						c1.818,0.962,4.208,1.646,5.894,0.496c0.438-0.299,0.801-0.709,1.303-0.9c0.556-0.212,1.185-0.12,1.775-0.016
						c5.09,0.894,10.053,2.42,14.717,4.525c1.058,0.478,2.151,1.027,2.777,1.955c0.626,0.928,0.574,2.344-0.413,2.941"/>
				</g>
			</g>
		</g>
	</g>
	<g>
		<g>
			<g>
				<g>
					<g>
						<path style="fill:#6EA652;" d="M66.503,234.14c0.596,0.844,1.681,1.773,2.885,2.405c1.097,0.576,2.31,1.172,3.531,0.971
							c1.361-0.224,2.287-1.357,3.08-2.409c3.828-5.076,7.655-10.151,11.483-15.227c-6.636,1.617-13.486,3.332-18.784,7.359
							c-0.963,0.732-1.887,1.563-2.393,2.628c-0.506,1.065-0.839,3.025-0.069,3.969L66.503,234.14z"/>
					</g>
					<g>
						<path style="fill:#83BA63;" d="M64.734,252.374c-0.352-1.434-0.51-2.914-0.566-4.4c-0.024-1.486,0.093-2.978,0.339-4.452
							c0.492-2.95,1.593-5.801,3.166-8.357c1.592-2.545,3.649-4.794,6.039-6.583c1.195-0.894,2.458-1.691,3.776-2.375
							c1.333-0.655,2.702-1.232,4.123-1.634c-1.341,0.614-2.651,1.273-3.883,2.061c-1.246,0.758-2.432,1.608-3.537,2.549
							c-2.208,1.877-4.158,4.053-5.67,6.509c-1.531,2.443-2.611,5.158-3.264,7.979C64.615,246.498,64.456,249.441,64.734,252.374z"
							/>
					</g>
				</g>
				<polygon style="fill:#EDC2AF;" points="68.509,266.844 52.276,266.844 47.132,250.25 73.139,250.25 				"/>
				<rect x="45.359" y="249.377" style="fill:#D2AB94;" width="29.553" height="2.699"/>
				<g>
					<path style="fill:#83BA63;" d="M38.698,270.27c-1.283-8.862-2.543-18.072,0.046-26.635c0.299-0.99,0.67-2,1.399-2.726
						c0.988-0.984,2.464-1.275,3.85-1.285c3.728-0.028,7.431,1.729,9.795,4.648c0.873,1.078,1.585,2.352,1.7,3.742
						c0.156,1.889-0.82,3.716-2.119,5.081s-2.912,2.371-4.414,3.503c-4.612,3.477-8.248,8.268-10.38,13.676"/>
					<g>
						<path style="fill:#6EA652;" d="M39.206,267.76c-0.053-3.615,0.417-7.243,1.3-10.77c0.893-3.532,2.197-6.943,3.995-10.156
							c0.948-1.573,2.116-3.106,3.728-4.154c1.589-1.063,3.621-1.478,5.481-1.117c1.867,0.325,3.598,1.383,4.687,2.901
							c1.072,1.516,1.616,3.402,1.39,5.203c0.045-3.632-2.726-6.991-6.195-7.345c-1.701-0.212-3.45,0.155-4.84,1.147
							c-1.417,0.95-2.5,2.364-3.39,3.873c-1.747,3.072-3.071,6.44-4.117,9.851C40.223,260.623,39.566,264.166,39.206,267.76z"/>
					</g>
				</g>
				<g>
					<g>
						<path style="fill:#6EA652;" d="M59.266,231.591c-0.617,1.364-1.886,2.949-3.39,4.114c-1.372,1.062-2.898,2.177-4.63,2.112
							c-1.93-0.072-3.481-1.575-4.829-2.981c-6.508-6.791-13.015-13.581-19.523-20.372c9.536,1.13,19.392,2.365,27.67,7.321
							c1.505,0.901,2.98,1.956,3.936,3.437c0.956,1.481,1.89,4.322,1.059,5.868L59.266,231.591z"/>
					</g>
					<g>
						<path style="fill:#83BA63;" d="M61.987,249.666c-0.238-3.376-0.939-6.692-2.122-9.817c-1.194-3.118-2.814-6.069-4.882-8.675
							c-2.05-2.62-4.539-4.886-7.296-6.768c-1.379-0.943-2.84-1.771-4.36-2.481c-1.509-0.74-3.092-1.323-4.709-1.828
							c1.672,0.285,3.306,0.781,4.903,1.378c1.585,0.629,3.118,1.397,4.583,2.284c2.93,1.777,5.53,4.103,7.665,6.797
							c2.118,2.708,3.77,5.779,4.819,9.04C61.647,242.848,62.162,246.278,61.987,249.666z"/>
					</g>
				</g>
				<g>
					<g>
						<path style="fill:#6EA652;" d="M72.547,247.558c-1.437-0.58-3.007,0.937-2.996,2.415c0.011,1.478,1.019,2.766,1.98,3.935
							c2.169,2.638,4.337,5.275,6.506,7.913c2.516-4.623,1.301-10.821-2.807-14.32c-0.891-0.759-2.687-1.153-2.944-0.05"/>
					</g>
					<g>
						<path style="fill:#83BA63;" d="M66.52,249.313c0.178-0.761,0.761-1.359,1.364-1.849c0.625-0.496,1.454-0.775,2.274-0.789
							c0.829-0.025,1.658,0.208,2.373,0.626c0.739,0.419,1.288,1.019,1.794,1.618c0.509,0.608,0.92,1.288,1.266,2.004
							c0.323,0.736,0.57,1.42,0.82,2.156c0.497,1.45,0.779,2.996,0.757,4.52c-0.388-1.477-0.916-2.865-1.514-4.23
							c-0.3-0.671-0.616-1.389-0.928-2.024c-0.316-0.642-0.733-1.236-1.17-1.806c-0.452-0.56-0.94-1.097-1.499-1.463
							c-0.572-0.369-1.231-0.611-1.914-0.664c-0.686-0.042-1.387,0.074-2.017,0.427C67.493,248.181,66.882,248.645,66.52,249.313z"
							/>
					</g>
				</g>
				<g>
					<polygon style="fill:#38303B;" points="73.003,406.482 72.16,406.563 68.724,266.583 69.566,266.502 					"/>
					<polygon style="fill:#38303B;" points="48.06,406.482 48.903,406.563 52.339,266.583 51.496,266.502 					"/>
					<path style="fill:#38303B;" d="M71.894,268.679H48.326c-0.479,0-0.867-0.388-0.867-0.867v-0.671
						c0-0.479,0.388-0.867,0.867-0.867h23.568c0.479,0,0.867,0.388,0.867,0.867v0.671C72.761,268.291,72.373,268.679,71.894,268.679
						z"/>
				</g>
			</g>
			<g>
				<g>
					<g>
						<path style="fill:#6EA652;" d="M209.47,383.577c-0.052-3.258-0.105-6.516-0.157-9.773c-0.025-1.559-0.059-3.161-0.669-4.605
							c-0.61-1.444-1.938-2.715-3.541-2.813c-0.767-0.047-1.548,0.173-2.298,0.009c-1.89-0.412-1.581-3.488-1.988-5.327
							c-1.12-5.059-5.447-8.821-10.175-11.218c-1.622-0.822-3.487-1.414-5.267-1.018c-1.78,0.396-3.341,2.072-3.022,3.819
							c0.231,1.266,1.315,2.212,1.854,3.387c1.222,2.668-0.469,6.19,1.37,8.503c1.892,2.379,6.492,1.984,7.56,4.803
							c0.354,0.935,0.174,1.976,0.36,2.955c0.348,1.835,1.939,3.231,3.653,4.077c1.714,0.846,3.612,1.282,5.358,2.064
							c2.757,1.234,5.091,3.343,6.558,5.923"/>
					</g>
					<g>
						<path style="fill:#83BA63;" d="M204.964,385.78c0.241-3.386-0.279-6.806-1.711-9.81c-1.415-3.023-3.766-5.458-5.87-8.177
							c-1.022-1.373-1.979-2.85-2.686-4.431c-0.71-1.572-1.304-3.162-1.957-4.709c-0.654-1.545-1.46-3.014-2.541-4.287
							c-1.051-1.288-2.432-2.328-4.057-2.851c1.688,0.301,3.209,1.296,4.421,2.522c1.199,1.253,2.122,2.754,2.876,4.293
							c0.772,1.535,1.374,3.129,2.115,4.628c0.707,1.511,1.614,2.895,2.629,4.236c2.011,2.648,4.451,5.211,5.771,8.466
							c0.663,1.604,1.089,3.298,1.263,5.01C205.364,382.384,205.293,384.111,204.964,385.78z"/>
					</g>
					<g>
						<path style="fill:#6EA652;" d="M210.702,382.28c0.07-3.466,0.139-6.933,0.209-10.399c0.033-1.659,0.076-3.363,0.715-4.903
							c0.639-1.54,2.021-2.899,3.683-3.01c0.795-0.053,1.603,0.176,2.381-0.002c1.961-0.448,2.471-2.926,2.901-4.884
							c1.184-5.388,4.872-10.204,9.782-12.779c1.685-0.883,3.62-1.521,5.462-1.109s3.452,2.188,3.113,4.048
							c-0.246,1.348-1.374,2.36-1.937,3.613c-1.279,2.845,0.457,6.584-1.46,9.053c-1.972,2.54-6.737,2.143-7.856,5.148
							c-0.371,0.996-0.19,2.103-0.387,3.146c-0.369,1.953-2.024,3.447-3.805,4.355c-1.78,0.908-3.749,1.382-5.562,2.223
							c-2.862,1.327-5.292,3.582-6.823,6.335"/>
					</g>
					<g>
						<path style="fill:#83BA63;" d="M211.661,382.634c-0.336-1.779-0.025-3.649,0.612-5.356c0.662-1.71,1.668-3.261,2.795-4.693
							c2.288-2.857,5.144-5.108,7.368-7.844c2.339-2.656,3.439-6.081,4.995-9.358c0.78-1.635,1.733-3.232,2.977-4.578
							c1.252-1.321,2.839-2.408,4.62-2.754c-1.715,0.568-3.16,1.696-4.252,3.078c-1.125,1.365-1.963,2.931-2.645,4.572
							c-0.683,1.643-1.303,3.329-2.043,4.995c-0.737,1.663-1.709,3.272-2.881,4.681c-2.343,2.831-5.208,5.051-7.553,7.701
							c-1.163,1.329-2.205,2.781-2.934,4.391C211.96,379.06,211.552,380.833,211.661,382.634z"/>
					</g>
					<g>
						<path style="fill:#83BA63;" d="M209.637,379.316c-2.298-3.447-4.595-6.893-6.893-10.339c-1.1-1.649-2.221-3.349-2.642-5.286
							c-0.421-1.937,0.013-4.193,1.576-5.413c0.748-0.584,1.701-0.898,2.347-1.593c1.627-1.749,0.438-4.521-0.474-6.728
							c-2.51-6.076-2.163-13.263,0.921-19.068c1.058-1.992,2.53-3.91,4.629-4.737c2.098-0.826,4.897-0.16,5.833,1.891
							c0.678,1.486,0.257,3.232,0.556,4.837c0.681,3.645,4.945,6.152,4.741,9.855c-0.21,3.809-5.179,6.602-4.232,10.298
							c0.314,1.225,1.249,2.19,1.766,3.344c0.97,2.163,0.354,5.06-0.781,7.14c-1.135,2.081-3.123,2.88-4.337,4.916
							c-1.917,3.213-1.745,6.991-1.376,10.714"/>
					</g>
					<g>
						<path style="fill:#6EA652;" d="M210.259,379.552c-1.984-3.874-2.858-8.342-2.515-12.74c0.315-4.427,2.126-8.535,2.028-12.787
							c0.041-4.264-1.297-8.459-1.789-12.82c-0.228-2.184-0.242-4.411,0.173-6.58c0.439-2.149,1.34-4.264,2.876-5.824
							c-1.359,1.707-2.122,3.788-2.393,5.906c-0.306,2.119-0.207,4.282,0.107,6.4c0.628,4.24,1.978,8.448,2.025,12.918
							c-0.005,4.517-1.82,8.622-2.265,12.859c-0.249,2.124-0.212,4.286,0.098,6.414
							C208.882,375.434,209.463,377.529,210.259,379.552z"/>
					</g>
				</g>
				<polygon style="fill:#EDC2AF;" points="217.317,406.998 201.065,406.998 195.914,377.087 221.952,377.087 				"/>
				<rect x="194.139" y="375.513" style="fill:#D2AB94;" width="29.589" height="4.865"/>
			</g>
		</g>
		<g>
			<polygon style="fill:#606060;" points="24.702,407.253 52.819,407.01 80.936,406.87 137.17,406.754 193.404,406.868 
				221.521,407.008 249.638,407.253 221.521,407.498 193.404,407.638 137.17,407.752 80.936,407.636 52.819,407.496 			"/>
		</g>
		<g>
			<g>
				<g>
					<path style="fill:#F7B094;" d="M164.592,388.235c-0.333,2.058-0.665,4.116-0.998,6.174c-0.065,0.4-0.13,0.807-0.078,1.209
						c0.201,1.572,2.001,2.426,2.696,3.854c0.074,0.152,0.136,0.317,0.121,0.486c-0.048,0.537-0.754,0.699-1.299,0.719
						c-1.594,0.059-3.189,0.118-4.783,0.176c-0.602,0.022-1.314-0.008-1.649-0.503c-0.151-0.223-0.19-0.5-0.225-0.767
						c-0.515-3.889-1.03-7.777-1.545-11.666"/>
				</g>
				<g>
					<g>
						<path style="fill:#F7B094;" d="M121.25,388.235c0.327,2.058,0.655,4.116,0.982,6.174c0.064,0.4,0.127,0.807,0.077,1.209
							c-0.198,1.572-1.969,2.426-2.653,3.854c-0.073,0.152-0.134,0.317-0.119,0.486c0.047,0.537,0.742,0.699,1.279,0.719
							c1.569,0.059,3.138,0.118,4.707,0.176c0.592,0.022,1.293-0.008,1.623-0.503c0.148-0.223,0.187-0.5,0.222-0.767
							c0.507-3.889,1.013-7.777,1.52-11.666"/>
					</g>
					<g>
						<path style="fill:#38303B;" d="M105.241,407.056c3.904,0.149,7.104,0.267,11.008,0.416c1.194,0.046,2.451,0.078,3.511-0.477
							c0.585-0.306,1.168-0.797,1.813-0.667c0.5,0.101,0.851,0.552,1.309,0.777c0.402,0.197,0.866,0.21,1.313,0.22
							c1.365,0.029,2.73,0.058,4.095,0.088c0.45,0.01,0.947,0.004,1.287-0.294c0.4-0.349,0.424-0.955,0.4-1.487
							c-0.096-2.104-0.475-4.194-1.125-6.196c-0.148-0.456-0.367-0.964-0.822-1.107c-0.419-0.131-0.853,0.106-1.236,0.322
							c-1.546,0.873-3.578,1.491-5.005,0.433c-0.371-0.275-0.677-0.651-1.103-0.828c-0.471-0.195-1.005-0.114-1.507-0.021
							c-4.325,0.8-8.543,2.178-12.509,4.086c-0.9,0.433-1.83,0.931-2.364,1.778c-0.535,0.847-0.495,2.142,0.341,2.691"/>
					</g>
					<g>
						<g>
							<path style="fill:#4C9374;" d="M112.85,399.989c0.076,0.055-0.049-0.042-0.002-0.003c0.018,0.015,0.037,0.03,0.055,0.045
								c0.041,0.034,0.08,0.07,0.118,0.106c0.076,0.073,0.149,0.151,0.216,0.232c0.012,0.014,0.028,0.045,0.044,0.055
								c-0.039-0.023-0.049-0.065-0.004-0.003c0.031,0.043,0.061,0.087,0.09,0.131c0.058,0.089,0.111,0.181,0.159,0.276
								c0.022,0.042,0.043,0.085,0.062,0.128c0.003,0.005,0.047,0.111,0.018,0.038c-0.026-0.066,0.004,0.01,0.009,0.022
								c0.039,0.099,0.074,0.2,0.105,0.302c0.031,0.102,0.057,0.205,0.079,0.309c0.011,0.052,0.021,0.104,0.03,0.156
								c0.004,0.023,0.007,0.046,0.011,0.07c0.02,0.121-0.014-0.116,0.001,0.006c0.031,0.259,0.207,0.513,0.5,0.5
								c0.244-0.011,0.534-0.222,0.5-0.5c-0.131-1.08-0.594-2.08-1.488-2.733c-0.212-0.155-0.567-0.043-0.684,0.179
								C112.533,399.565,112.624,399.824,112.85,399.989L112.85,399.989z"/>
						</g>
					</g>
					<g>
						<g>
							<path style="fill:#4C9374;" d="M116.27,398.773c0.095,0.097,0.188,0.196,0.278,0.299c0.042,0.048,0.083,0.097,0.124,0.147
								c0.025,0.031,0.051,0.062,0.076,0.093c0.019,0.023,0.042,0.055,0.01,0.013c0.164,0.217,0.316,0.444,0.453,0.68
								c0.133,0.229,0.252,0.465,0.357,0.708c0.035,0.081-0.042-0.107,0.014,0.036c0.012,0.03,0.024,0.06,0.035,0.09
								c0.023,0.06,0.045,0.12,0.066,0.181c0.048,0.136,0.091,0.274,0.13,0.413c0.071,0.251,0.357,0.433,0.615,0.349
								c0.256-0.083,0.426-0.345,0.349-0.615c-0.33-1.165-0.952-2.236-1.801-3.099c-0.184-0.187-0.525-0.198-0.707,0
								C116.086,398.267,116.074,398.574,116.27,398.773L116.27,398.773z"/>
						</g>
					</g>
				</g>
				<g>
					<path style="fill:#38303B;" d="M180.591,407.178c-3.904,0.149-7.104,0.266-11.008,0.416c-1.194,0.046-2.451,0.078-3.511-0.477
						c-0.585-0.306-1.167-0.797-1.813-0.667c-0.5,0.101-0.85,0.552-1.309,0.777c-0.402,0.197-0.866,0.21-1.313,0.22
						c-1.365,0.029-2.73,0.058-4.095,0.087c-0.451,0.01-0.947,0.003-1.287-0.294c-0.399-0.35-0.424-0.956-0.4-1.487
						c0.095-2.104,0.475-4.194,1.125-6.196c0.148-0.456,0.367-0.964,0.822-1.107c0.418-0.131,0.853,0.106,1.235,0.322
						c1.546,0.873,3.578,1.491,5.005,0.433c0.371-0.275,0.677-0.651,1.103-0.828c0.471-0.196,1.005-0.114,1.507-0.021
						c4.325,0.8,8.543,2.178,12.509,4.086c0.9,0.433,1.83,0.931,2.364,1.778c0.535,0.847,0.495,2.142-0.34,2.691"/>
				</g>
				<g>
					<g>
						<path style="fill:#4C9374;" d="M172.477,399.247c-0.895,0.653-1.357,1.653-1.488,2.733c-0.032,0.261,0.253,0.511,0.5,0.5
							c0.298-0.013,0.466-0.221,0.5-0.5c0.012-0.096-0.013,0.075-0.002,0.011c0.004-0.023,0.007-0.046,0.011-0.07
							c0.009-0.052,0.019-0.104,0.029-0.156c0.022-0.104,0.048-0.207,0.078-0.31c0.03-0.102,0.065-0.203,0.104-0.303
							c0.008-0.021,0.021-0.044,0.027-0.066c-0.013,0.054-0.029,0.068-0.001,0.006c0.022-0.048,0.045-0.096,0.07-0.144
							c0.046-0.089,0.096-0.176,0.15-0.261c0.028-0.045,0.058-0.089,0.089-0.132c0.003-0.004,0.072-0.096,0.024-0.034
							c-0.043,0.055,0.007-0.008,0.016-0.018c0.067-0.082,0.139-0.16,0.215-0.233c0.038-0.037,0.077-0.073,0.118-0.107
							c0.018-0.015,0.036-0.03,0.055-0.045c0.094-0.078-0.087,0.064,0.012-0.008c0.211-0.154,0.336-0.441,0.179-0.684
							C173.027,399.218,172.703,399.083,172.477,399.247L172.477,399.247z"/>
					</g>
				</g>
				<g>
					<g>
						<path style="fill:#4C9374;" d="M168.855,398.188c-0.849,0.863-1.471,1.934-1.801,3.099c-0.071,0.251,0.087,0.555,0.349,0.615
							c0.266,0.061,0.539-0.08,0.615-0.349c0.037-0.131,0.077-0.261,0.122-0.39c0.021-0.061,0.043-0.121,0.066-0.181
							c0.014-0.038,0.029-0.075,0.044-0.112c0.012-0.03,0.026-0.063,0.005-0.014c0.106-0.251,0.23-0.495,0.367-0.73
							c0.133-0.229,0.28-0.449,0.438-0.66c0.053-0.07-0.071,0.088,0.025-0.032c0.02-0.025,0.04-0.05,0.06-0.075
							c0.04-0.05,0.082-0.099,0.124-0.147c0.094-0.109,0.193-0.214,0.294-0.317c0.184-0.187,0.2-0.523,0-0.707
							C169.364,398.005,169.051,397.988,168.855,398.188L168.855,398.188z"/>
					</g>
				</g>
				<path style="fill:#38303B;" d="M136.094,295.435h1.656l11.415,47.727l6.066,45.585c0.042,0.314,0.304,0.551,0.618,0.56
					l9.593,0.267c0.471,0.013,0.854-0.379,0.831-0.852l-2.26-47.482l-8.35-62.328l-3.05-14.427l-34.604-0.627l-2.695,19.852
					l1.758,60.062l2.96,45.311c0.031,0.473,0.43,0.836,0.902,0.82l8.031-0.277c0.459-0.016,0.827-0.386,0.844-0.847l1.587-45.284
					L136.094,295.435z"/>
				<g style="opacity:0.34;">
					<g>
						<path style="fill:#DEDFE0;" d="M115.907,283.526c2.526-2.459,4.164-5.741,4.904-9.168c0.137-0.632-0.834-0.902-0.971-0.268
							c-0.706,3.266-2.236,6.378-4.646,8.723C114.729,283.267,115.442,283.978,115.907,283.526L115.907,283.526z"/>
					</g>
				</g>
				<path style="opacity:0.42;fill:#B7B7B7;" d="M139.358,267.992c-0.012-0.394-0.622-0.396-0.61,0
					c0.075,2.478,0.09,4.958,0.041,7.437c-0.023,1.173-0.008,2.369-0.127,3.537c-0.101,0.99-0.611,2.278-1.788,2.192
					c-0.082-4.813-0.164-9.626-0.246-14.438c-0.007-0.427-0.665-0.386-0.657,0.039c0.103,6.048,0.206,12.097,0.309,18.146
					c0.007,0.427,0.665,0.386,0.657-0.039c-0.018-1.032-0.035-2.065-0.053-3.097c1.027,0.075,1.845-0.756,2.167-1.677
					c0.185-0.53,0.231-1.106,0.258-1.663c0.034-0.696,0.052-1.393,0.07-2.089C139.45,273.557,139.442,270.774,139.358,267.992z"/>
				<g style="opacity:0.34;">
					<path style="fill:none;" d="M150.018,274.113c1.289,3.508,3.166,7.029,6.353,8.958"/>
				</g>
				<g style="opacity:0.34;">
					<g>
						<path style="fill:#DEDFE0;" d="M155.304,385.809c3.413,0.125,6.83,0.029,10.245,0.047c0.648,0.004,0.649-1.003,0-1.007
							c-3.414-0.018-6.831,0.078-10.245-0.047C154.656,384.778,154.657,385.785,155.304,385.809L155.304,385.809z"/>
					</g>
				</g>
				<g style="opacity:0.34;">
					<g>
						<path style="fill:#DEDFE0;" d="M120.462,386.751c3.01-0.042,6.016-0.233,9.022-0.394c0.644-0.035,0.648-1.042,0-1.007
							c-3.006,0.161-6.012,0.352-9.022,0.394C119.815,385.754,119.813,386.76,120.462,386.751L120.462,386.751z"/>
					</g>
				</g>
			</g>
			<g>
				<path style="fill:#38303B;" d="M149.215,171.834c0,7.72-6.339,18.047-14.366,18.047c-8.026,0-14.199-10.031-14.199-17.751
					c0-7.72,6.173-11.242,14.199-11.242C142.876,160.888,149.215,164.114,149.215,171.834z"/>
				<g>
					<g>
						<path style="fill:#F7B094;" d="M141.609,204.987c-1.246-4.569-2.199-10.39-2.439-13.431c-0.012-0.149-0.025-0.304-0.083-0.429
							c-0.101-0.216-0.302-0.281-0.483-0.318c-1.51-0.305-3.064,0.101-4.566-0.275c-1.228-0.308-2.451-1.136-3.669-0.758
							c-0.123,0.038-0.252,0.095-0.335,0.229c-0.099,0.16-0.11,0.39-0.114,0.602c-0.02,0.938-0.009,1.876,0.001,2.813
							c0.032,2.864-1.381,10.395-1.349,13.258"/>
					</g>
					<g>
						<path style="fill:#E89C82;" d="M129.864,189.159c0.083-0.134,0.212-0.191,0.335-0.229c1.218-0.378,2.441,0.45,3.669,0.758
							c1.502,0.377,3.055-0.029,4.566,0.275c0.182,0.037,0.383,0.102,0.483,0.318c0.058,0.125,0.072,0.28,0.083,0.429
							c0.119,1.505,0.46,2.866,0.58,4.371c-1.279,1.06-2.918,1.902-4.395,2.004c-2.027,0.139-4.142-1.003-5.419-3.174
							c-0.005-0.445-0.01-0.891-0.015-1.336c-0.01-0.938-0.021-1.876-0.001-2.814C129.754,189.549,129.765,189.319,129.864,189.159z
							"/>
					</g>
				</g>
				<g>
					<g>
						<path style="fill:#F7B094;" d="M123.73,180.188c0,8.56,5.907,15.499,11.171,15.499c5.263,0,11.171-6.939,11.171-15.499
							c0-8.56-5.908-15.038-11.171-15.038C129.637,165.15,123.73,171.628,123.73,180.188z"/>
					</g>
					<g>
						<g>
							<path style="fill:#F7B094;" d="M124.34,183.524c-1.376-0.419-2.567-1.617-2.679-3.051c-0.113-1.434,1.108-2.92,2.543-2.832"
								/>
						</g>
						<g>
							<path style="fill:#F7B094;" d="M145.112,183.524c1.376-0.419,2.567-1.617,2.679-3.051c0.113-1.434-1.108-2.92-2.543-2.832"/>
						</g>
					</g>
				</g>
				<path style="fill:#38303B;" d="M139.961,178.405c0,0.862,0.381,1.561,0.851,1.561c0.47,0,0.852-0.699,0.852-1.561
					c0-0.862-0.381-1.561-0.852-1.561C140.342,176.844,139.961,177.543,139.961,178.405z"/>
				<path style="fill:#38303B;" d="M128.897,178.482c0,0.862,0.381,1.561,0.852,1.561c0.47,0,0.851-0.699,0.851-1.561
					c0-0.862-0.381-1.561-0.851-1.561C129.278,176.921,128.897,177.62,128.897,178.482z"/>
				<g>
					<g>
						<path style="fill:#38303B;" d="M138.979,177.467c0.572-0.205,1.215-0.234,1.817-0.232c0.565,0.001,1.285,0.022,1.778,0.238
							c0.175,0.077,0.38,0.051,0.485-0.127c0.088-0.15,0.049-0.408-0.127-0.485c-0.635-0.278-1.378-0.327-2.063-0.334
							c-0.682-0.007-1.43,0.025-2.078,0.257c-0.18,0.064-0.301,0.241-0.247,0.436C138.591,177.394,138.798,177.532,138.979,177.467
							L138.979,177.467z"/>
					</g>
				</g>
				<g>
					<g>
						<path style="fill:#38303B;" d="M131.751,176.784c-0.648-0.232-1.396-0.264-2.078-0.257c-0.685,0.007-1.428,0.056-2.063,0.334
							c-0.175,0.077-0.216,0.333-0.127,0.485c0.106,0.181,0.309,0.204,0.485,0.127c0.493-0.216,1.213-0.236,1.778-0.238
							c0.602-0.001,1.244,0.027,1.817,0.232c0.18,0.064,0.388-0.073,0.436-0.247C132.053,177.023,131.932,176.848,131.751,176.784
							L131.751,176.784z"/>
					</g>
				</g>
				<g>
					<path style="fill:#38303B;" d="M126.357,175.472c-0.066,0.113,0.045,0.177,0.104,0.15c0.123-0.058,0.158-0.194,0.499-0.362
						c1.223-0.603,2.855-0.632,4.193-0.199c0.205,0.067,0.523,0.257,0.739,0.298c0.11,0.021,0.227-0.057,0.226-0.12
						c-0.001-0.074-0.048-0.143-0.101-0.205c-0.224-0.26-0.587-0.43-0.962-0.549c-1.208-0.385-2.649-0.299-3.766,0.224
						c-0.418,0.196-0.722,0.426-0.926,0.754"/>
					<path style="fill:#38303B;" d="M143.893,175.472c0.066,0.113-0.045,0.177-0.104,0.15c-0.123-0.058-0.158-0.194-0.499-0.362
						c-1.224-0.603-2.855-0.632-4.193-0.199c-0.205,0.067-0.523,0.257-0.739,0.298c-0.11,0.021-0.227-0.057-0.226-0.12
						c0.001-0.074,0.048-0.143,0.101-0.205c0.224-0.26,0.587-0.43,0.962-0.549c1.208-0.385,2.649-0.299,3.766,0.224
						c0.418,0.196,0.722,0.426,0.926,0.754"/>
				</g>
				<g>
					<path style="fill:#E66E60;" d="M131.852,187.466"/>
				</g>
				<g>
					<g>
						<path style="fill:#E89C82;" d="M135.028,177.6c0.201,1.608,0.403,3.216,0.604,4.824c0.097,0.778,0.195,1.556,0.292,2.335
							c0.01,0.082,0.009,0.513,0.066,0.557c0.302-0.225,0.329-0.321,0.081-0.29c-0.097-0.003-0.194-0.006-0.291-0.009
							c-0.388-0.011-0.776-0.023-1.164-0.034c-0.644-0.019-0.643,0.981,0,1c0.436,0.013,0.873,0.026,1.309,0.039
							c0.361,0.011,0.759,0.025,0.965-0.33c0.196-0.338,0.049-0.807,0.005-1.166c-0.059-0.467-0.117-0.934-0.176-1.401
							c-0.231-1.842-0.461-3.683-0.692-5.525c-0.034-0.27-0.206-0.497-0.5-0.5C135.284,177.097,134.994,177.332,135.028,177.6
							L135.028,177.6z"/>
					</g>
				</g>
				<g>
					<path style="fill:#38303B;" d="M144.592,163.496c-3.901-3.938-15.638-3.846-16.494-3.731c-0.639,0.086-1.277,0.005-1.909-0.075
						c-2.062-0.262-4.124-0.524-6.187-0.786c-0.223-0.028-0.467-0.051-0.661,0.104c-0.325,0.259-0.318,0.838-0.232,1.287
						c0.342,1.774,1.311,3.314,2.611,4.148c-1.577,0.51-3.257,0.406-4.735-0.293c-0.282,1.523,0.287,3.102,1.214,4.087
						c0.926,0.985,2.158,1.452,3.391,1.665c2.682,0.464,5.529-0.197,7.973-1.85c-0.596,0.607-0.376,1.868,0.241,2.364
						c0.617,0.497,1.437,0.433,2.187,0.277c1.652-0.343,3.268-1.054,4.745-2.087c-0.314,1.056,0.361,2.198,1.215,2.491
						c0.854,0.292,1.791-0.052,2.625-0.517c1.311-0.731,2.518-1.77,3.535-3.042"/>
				</g>
				<g>
					<g>
						<path style="fill:#E66E60;" d="M131.452,188.385c1.48,1.968,3.053,2.569,5.103,2.049c0.639-0.162,2.177-1.416,2.477-2.149
							c-2.513,1.174-5.132,1.264-7.615-0.02"/>
					</g>
					<g>
						<path style="fill:#FFFFFF;" d="M131.452,188.385c1.645,0.962,3.629,1.262,6.273,0.669c0.599-0.134,1.197-0.397,1.496-0.833
							c-2.513,0.7-5.518,0.719-8.001-0.046L131.452,188.385z"/>
					</g>
				</g>
				<g>
					<path style="fill:#38303B;" d="M144.212,165.517c-1.802-3.233-9.592-6.793-10.182-6.997c-0.44-0.152-0.847-0.39-1.249-0.626
						c-1.314-0.769-2.627-1.538-3.941-2.308c-0.142-0.083-0.299-0.17-0.458-0.15c-0.267,0.034-0.377,0.335-0.409,0.593
						c-0.125,1.021,0.211,2.114,0.907,2.945c-1.145-0.221-2.237-0.792-3.077-1.607c-0.489,0.7-0.425,1.69-0.007,2.484
						c0.418,0.793,1.141,1.413,1.915,1.902c1.684,1.064,3.7,1.598,5.646,1.495c-0.515,0.13-0.619,0.849-0.309,1.295
						c0.31,0.446,0.866,0.665,1.393,0.816c1.162,0.331,2.373,0.461,3.556,0.381c-0.417,0.449-0.197,1.246,0.311,1.66
						c0.507,0.413,1.196,0.524,1.841,0.54c1.013,0.026,2.019-0.14,2.944-0.484"/>
				</g>
			</g>
			<path style="fill:#F7B094;" d="M102.275,221.261c-2.757,5.943-4.53,10.184-6.352,15.391c-0.599,1.711-1.37,3.887-1.425,5.786
				c-0.054,1.899,0.59,4.701,2.219,5.315c2.414,0.91,7.716,1.472,9.043-1.239c3.961-8.09,5.511-11.912,9.034-19.042"/>
			<path style="fill:#F7B094;" d="M164.996,218.65c3.34,5.636,5.861,9.039,8.197,14.036c0.768,1.642,2.157,4.448,2.467,6.322
				c0.384,2.319-1.305,5.247-2.864,6.022c-2.311,1.148-5.906,1.434-7.499-1.13c-4.754-7.651-7.483-13.355-11.704-20.095"/>
			<path style="fill:#F7B094;" d="M144.57,202.648c-0.105-0.053-0.21-0.099-0.314-0.14c-3.186-1.552-6.777-2.437-10.585-2.437
				c-3.27,0-6.383,0.649-9.216,1.814c-0.031,0.012-0.063,0.02-0.094,0.033c-8.434,3.509-14.342,11.641-14.342,21.113h47.305
				C157.323,214.165,152.148,206.474,144.57,202.648z"/>
			<g id="tshirt_2_">
				<path id="tshirt_3_" style="fill:#F2E2C8;" d="M170.243,225.141c-0.084-1.06-1.258-3.68-1.612-4.683
					c-2.213-6.27-7.152-10.556-9.455-12.667c-0.768-0.614-1.747-1.322-2.041-1.484c-0.809-0.607-2.271-1.49-3.48-2.047
					c-3.494-1.61-7.726-2.813-11.754-3.59l0.058-0.146c-0.102,0.034-0.197,0.067-0.295,0.1c-0.172-0.033-0.346-0.069-0.518-0.1
					c-0.339-0.061-0.335,0.847-0.651,1.248c-1.933,0.833-0.233,1.467-1.303,1.776c-0.564,0.092-3.501,0.579-3.908,0.592
					c-0.407-0.013-2.042-0.145-2.605-0.237c-1.07-0.309-2.212-1.18-4.145-2.013c-0.316-0.401-0.489-1.246-0.829-1.184
					c-0.171,0.031,1.01-0.115,0.838-0.082c-0.097-0.033-0.192-0.067-0.295-0.1l-4.96,1.057c-3.87,0.992-7.573,2.669-10.897,4.935
					c-0.303,0.206-0.606,0.426-0.897,0.66c-4.536,3.328-7.316,7.795-9.918,13.283c-0.456,0.961-1.529,3.623-1.612,4.683
					c-0.193,2.45,1.704,4.415,3.531,6.059c2.122,1.909,4.569,3.455,7.205,4.551l0.089-0.093c0.427-0.538,0.827-0.698,1.193-1.254
					c0.053,0.64,0.121,1.288,0.203,1.943c0.669,10.035,1.674,20.046,3.032,30.006c0.145,1.06,0.416,2.294,1.366,2.722
					c0.523,0.235,1.116,0.085,1.686,0.077c12.914-0.201,23.573,0.3,34.857-0.339c0.422-0.024,0.844-0.2,1.159-0.492
					c0.415-0.386,0.831,1.408,0.895,0.835c1.54-13.738,2.013-22.146,2.798-32.456c0.102-0.776,0.184-1.541,0.247-2.296
					c0.365,0.556,0.766,0.716,1.193,1.254l0.089,0.093c2.635-1.096,5.083-2.642,7.205-4.551
					C168.539,229.556,170.436,227.59,170.243,225.141z"/>
				<g id="light_decoration_1_">
					<g>
						<g>
							<path style="fill:#4C9374;" d="M98.176,224.297c2.333,5.773,7.315,9.737,12.59,12.74c1.292,0.736,2.455-1.256,1.164-1.991
								c-4.685-2.667-9.443-6.198-11.53-11.362c-0.233-0.577-0.768-0.984-1.418-0.805C98.434,223.029,97.942,223.716,98.176,224.297
								L98.176,224.297z"/>
						</g>
						<g>
							<path style="fill:#4C9374;" d="M159.514,236.91c4.997-2.698,10.221-5.895,12.557-11.341c0.245-0.572,0.17-1.236-0.414-1.577
								c-0.486-0.284-1.331-0.162-1.577,0.414c-2.192,5.108-7.046,7.984-11.73,10.514
								C157.044,235.624,158.207,237.616,159.514,236.91L159.514,236.91z"/>
						</g>
						<g>
							<path style="fill:#4C9374;" d="M126.27,200.705c-0.4,2.709,4.726,4.833,7.817,5.082c3.449,0.278,7.272-1.256,8.702-4.599
								c0.245-0.572,0.171-1.236-0.413-1.577c-0.485-0.284-1.331-0.162-1.578,0.414c-0.979,2.289-3.304,3.456-5.721,3.491
								c-1.438,0.021-2.851-0.299-4.198-0.79c-0.674-0.246-2.155-0.907-2.389-2.021c-0.12-0.57,0.005-1.036-0.577-1.377
								c-0.488-0.285-1.082-0.174-1.332,0.4L126.27,200.705z"/>
						</g>
						<g>
							<path style="fill:#4C9374;" d="M112.254,235.529c-0.133-5.484-0.095-10.972,0.119-16.454c0.06-1.545,0.135-3.089,0.223-4.632
								c0.022-0.387-0.579-0.385-0.601,0c-0.311,5.477-0.451,10.963-0.414,16.449c0.01,1.546,0.035,3.092,0.072,4.637
								C111.662,235.915,112.263,235.917,112.254,235.529L112.254,235.529z"/>
						</g>
						<g>
							<path style="fill:#4C9374;" d="M112.87,212.025c0.297-1.882,0.763-3.733,1.392-5.531c0.128-0.366-0.453-0.523-0.58-0.16
								c-0.629,1.799-1.095,3.649-1.392,5.531C112.23,212.243,112.81,212.406,112.87,212.025L112.87,212.025z"/>
						</g>
						<g>
							<path style="fill:#4C9374;" d="M158.712,235.323c-0.355-5.357-0.862-10.703-1.524-16.03
								c-0.187-1.507-0.387-3.011-0.598-4.515c-0.054-0.382-0.633-0.219-0.58,0.16c0.739,5.265,1.328,10.551,1.764,15.85
								c0.124,1.511,0.236,3.023,0.336,4.536C158.136,235.708,158.738,235.71,158.712,235.323L158.712,235.323z"/>
						</g>
						<g>
							<path style="fill:#4C9374;" d="M156.235,211.168c-0.184-2.003-0.647-3.966-1.393-5.835c-0.142-0.355-0.724-0.2-0.58,0.16
								c0.725,1.817,1.193,3.727,1.372,5.675C155.669,211.55,156.271,211.553,156.235,211.168L156.235,211.168z"/>
						</g>
					</g>
				</g>
			</g>
			<rect x="114.997" y="266.717" style="fill:#F2E2C8;" width="40.44" height="4.511"/>
			<g>
				<g>
					<path style="fill:#4C9374;" d="M139.543,259.354l-8.784,0.116c-1.088,0.014-1.982-0.856-1.996-1.944l-0.313-23.682
						c-0.014-1.088,0.856-1.982,1.944-1.996l8.785-0.116c1.088-0.014,1.982,0.856,1.996,1.944l0.313,23.682
						C141.501,258.446,140.631,259.339,139.543,259.354z"/>
					<g style="opacity:0.52;">
						<path style="fill:#FFFFFF;" d="M136.338,236.659c-0.408,0.586-1.214,0.731-1.8,0.323c-0.586-0.408-0.731-1.214-0.323-1.8
							c0.408-0.586,1.214-0.731,1.8-0.323C136.602,235.266,136.746,236.072,136.338,236.659z"/>
						<path style="opacity:0.54;fill:#DEDFE0;" d="M136.041,236.452c-0.294,0.422-0.874,0.526-1.296,0.232
							c-0.422-0.294-0.526-0.874-0.232-1.296c0.294-0.422,0.874-0.526,1.296-0.232C136.231,235.449,136.335,236.03,136.041,236.452z
							"/>
					</g>
				</g>
			</g>
			<g>
				<path style="fill:#F7B094;" d="M175.063,236.755c2.983,8.749-4.8,15.029-12.003,16.677c-6.705,1.534-11.656,2.4-19.285,2.946
					c-1.372,0.098-3.355,0.523-4.261-0.544c-0.894-1.052,0.222-1.653,0.446-2.969c0.085-0.498,0.926-1.112,3.258-1.765
					c8.67-2.426,15.047-6.086,23.257-10.657"/>
				<path style="fill:#F7B094;" d="M94.777,244.631c-0.058,2.707,5.242,6.785,12.376,8.708c6.642,1.79,11.841,2.755,19.443,3.593
					c1.367,0.151,3.047,0.742,3.994-0.29c0.934-1.017-0.159-1.66-0.331-2.984c-0.065-0.5-0.551-0.68-2.857-1.422
					c-8.571-2.757-15.487-7.072-23.759-11.028l-2.074,3.629l-0.967,0.892L94.777,244.631z"/>
				<g>
					<path style="fill:#F7B094;" d="M147.24,255.202c-0.394,0.151-1.063-0.261-1.741-0.72c0.34-0.296,0.659-0.601,0.95-0.915
						l0.066-2.096c-1.127-0.554-2.31-0.903-3.474-1.325c-0.321-0.126-0.627-0.245-0.919-0.359c-0.116-0.049-0.233-0.096-0.349-0.148
						c-0.004,0.003-0.006,0.006-0.01,0.009c-1.407-0.546-2.617-1.008-4.365-1.699c-0.342-0.135-0.699-0.272-1.081-0.228
						c-0.382,0.044-0.755,0.259-0.829,0.655c-0.067,0.358,0.501,0.797,0.865,1.057c0.761,0.542,1.294,0.874,2.057,1.411
						c0.859,0.605,1.26,1.001,0.968,1.419l-0.008-0.007c-0.494,0.595-8.146,0.37-8.757,0.584c-0.347,0.122-0.617,0.202-0.477,0.606
						c0.28,0.808,2.298,0.419,3.244,0.623c1.286,0.277,2.185,0.467,3.408,0.581c0.129,0.012,0.249,0.011,0.257,0.038
						c-0.005,0.034-0.268,0.117-0.421,0.131c-2.789,0.251-5.436,0.346-8.268,0.287c-0.346-0.007-0.537,0.384-0.317,0.674
						c0.529,0.697,1.912,1.042,2.814,1.183c1.726,0.271,3.574,0.32,5.389,0.224c-2.494,0.691-5.64,0.439-5.59,1.084
						c0.257,0.323,0.642,0.553,1.117,0.614c0.001,0,0.002,0,0.003,0c0.721,0.204,2.314,0.254,4.236,0.125l-0.585,0.185
						c-0.237,0.075-0.5,0.176-0.624,0.398c-0.146,0.263,0.012,0.442,0.209,0.492c1.248,0.317,7.608-0.389,10.516-2.772
						c0.182-0.149,0.594-0.59,0.963-1.039C146.824,255.991,147.083,255.617,147.24,255.202z"/>
				</g>
				<g style="opacity:0.55;">
					<g>
						<path style="fill:#E89C82;" d="M134.828,259.744c0.363,0,1.946-0.045,2.463-0.13c0.867-0.142,1.1-0.148,1.918-0.467
							c0.467-0.181,0.666-0.492,0.648-0.804c-0.026-0.441-0.645-0.555-0.933-0.674c1.27-0.207,2.098-0.433,2.852-1.27
							c0.233-0.259,0.284-0.641,0.285-0.855c0.002-0.561-0.977-0.837-1.529-0.933c-0.596-0.104-1.218-0.156-2.1-0.182
							c0.549-0.236,1.136-0.498,1.633-0.83c0.389-0.259,0.701-0.409,0.804-0.752c0.078-0.259,0.156-0.493-0.026-0.778
							c-0.112-0.176-0.331-0.355-0.674-0.389c-0.577-0.057-0.156,0-0.7-0.052c0.104,0.259,0.106,0.411-0.078,0.674l-0.933,0.233
							c-0.448,0.539-5.743,0.402-7.362,0.389c-0.114,0.362-0.677-0.272-0.5,0.077c0.085,0.168,0.194,0.321,0.309,0.469
							c0.637,0.271,1.369,0.464,1.854,0.569c1.286,0.277,2.185,0.467,3.408,0.581c0.129,0.012,0.936,0.065,0.944,0.092
							c-0.005,0.034-1.116,0.142-1.27,0.156c-1.321,0.119-2.448,0.122-3.74,0.171c0.363,0.655,0.585,1.388,0.648,2.135
							c0.952,0.041,1.916,0.034,2.872-0.016c-0.928,0.257-1.945,0.383-2.855,0.474c-0.001,0.469-0.045,0.94-0.046,1.407
							c0.749,0.027,1.661,0.01,2.668-0.058l-0.585,0.185C134.563,259.243,134.706,259.744,134.828,259.744z"/>
					</g>
				</g>
				<g>
					<g>
						<path style="fill:#F7B094;" d="M128.34,256.899c-0.903-0.074-1.782-0.142-2.671-0.258c-0.587-0.076,0.096-2.605-0.508-2.738
							c-0.772-0.17-2.84,2.032-3.673,1.712c0.188,0.497,0.514,0.943,0.957,1.231c3.731,2.433,12.795,3.042,14.61,2.424"/>
					</g>
					<g>
						<path style="fill:#F7B094;" d="M122.212,251.886c1.54-0.757,3.183-1.129,4.743-1.833c1.25,0.977,0.357,1.39,1.608,2.367
							c0.134,0.105,1.446,0.695,1.508,0.854c0.093,0.239,0.644,1.615,0.564,1.888c-0.461,1.568-0.082,1.833,0.644,3.103
							c-3.429-0.115-6.895-2.016-9-4.282"/>
					</g>
					<g>
						<path style="fill:#F7B094;" d="M124.842,250.893c2.548-1.007,3.94-1.524,6.488-2.53c0.342-0.135,0.699-0.272,1.081-0.228
							c0.382,0.044,0.755,0.259,0.829,0.655c0.067,0.358-0.501,0.797-0.865,1.057c-0.761,0.542-1.294,0.874-2.057,1.411
							c-1.027,0.723-1.413,1.147-0.724,1.668"/>
					</g>
					<g>
						<path style="fill:#F7B094;" d="M131.185,257.109c2.51,1.313,6.951,0.811,6.892,1.576c-0.257,0.323-0.642,0.553-1.117,0.614
							c-4.008,0.518-10.216-2.243-14.597-3.455"/>
					</g>
					<g>
						<path style="fill:#F7B094;" d="M126.587,255.023l2.771-2.353c0.494,0.595,8.016-0.557,8.626-0.342
							c0.347,0.122,0.617,0.202,0.477,0.606c-0.28,0.808-2.167,1.345-3.113,1.549c-1.286,0.277-2.185,0.467-3.408,0.581
							c-0.129,0.012-0.249,0.012-0.257,0.038c0.005,0.034,0.268,0.117,0.421,0.131c2.789,0.251,5.436,0.346,8.268,0.287
							c0.346-0.007,0.537,0.384,0.317,0.674c-0.529,0.697-1.912,1.042-2.814,1.183c-3.008,0.471-6.392,0.286-9.311-0.204
							l0.437-1.994C128.206,255.164,127.404,255.114,126.587,255.023z"/>
					</g>
					<g>
						<path style="fill:#F7B094;" d="M133.721,260.499c-1.248,0.317-7.608-0.389-10.516-2.772c-0.345-0.283-1.527-1.621-1.648-2.06
							c0.665,0.342,2.529-1.035,3.154-0.825c0.489,0.164-0.25,2.257,0.228,2.371c0.725,0.173,1.446,0.305,2.185,0.444l6.181,1.951
							c0.237,0.075,0.5,0.176,0.624,0.398C134.076,260.27,133.918,260.449,133.721,260.499z"/>
					</g>
				</g>
			</g>
		</g>
	</g>
</g>
</svg>
